<?xml version="1.0" encoding="UTF-8"?><svg id="a" xmlns="http://www.w3.org/2000/svg" viewBox="0 0 272.82 100"><defs><style>.b{fill:#0046ff;}</style></defs><g><path class="b" d="M89.62,30.74c.47,.41,.89,.89,1.24,1.44,.35,.56,.63,1.16,.83,1.81s.3,1.34,.3,2.07c0,1.22-.2,2.34-.59,3.35-.39,1.02-1,1.9-1.83,2.66s-1.87,1.35-3.13,1.77c-1.26,.42-2.74,.63-4.45,.63h-13.98V15.46h13.62c1.6,0,2.99,.2,4.19,.61,1.19,.41,2.19,.96,2.99,1.67,.8,.7,1.4,1.52,1.79,2.46,.39,.94,.59,1.92,.59,2.95,0,1.33-.27,2.52-.81,3.58-.54,1.06-1.29,1.82-2.24,2.28v.81c.52,.22,1.01,.53,1.48,.94Zm-4.65-7.03c0-2.14-1.37-3.21-4.11-3.21h-6.79v6.46h6.83c2.71,0,4.06-1.08,4.06-3.25Zm-.39,14.74c.8-.58,1.2-1.48,1.2-2.7,0-2.47-1.53-3.7-4.59-3.7h-7.11v7.28h7.03c1.52,0,2.68-.29,3.48-.87Z"/><path class="b" d="M96.02,14.93h5.85v5.16h-5.85v-5.16Zm.08,29.55V23.59h5.69v20.89h-5.69Z"/><path class="b" d="M119.43,28.34h-5.24v9.02c0,.7,.2,1.26,.59,1.67,.39,.41,1.08,.61,2.05,.61h2.6v4.84h-2.89c-1.19,0-2.28-.08-3.27-.24-.99-.16-1.84-.47-2.54-.91-.71-.45-1.25-1.08-1.65-1.89s-.59-1.87-.59-3.17v-9.92h-3.7v-4.76h3.7v-5.85h5.69v5.85h5.24v4.76Z"/><path class="b" d="M141.3,40.54c-.51,.92-1.19,1.71-2.03,2.38-.84,.66-1.82,1.18-2.93,1.54-1.11,.37-2.32,.55-3.62,.55-1.63,0-3.08-.26-4.37-.79-1.29-.53-2.39-1.27-3.31-2.22-.92-.95-1.63-2.1-2.11-3.46-.49-1.36-.73-2.86-.73-4.51s.24-3.15,.73-4.49c.49-1.34,1.19-2.49,2.11-3.46,.92-.96,2.03-1.71,3.31-2.24,1.29-.53,2.74-.79,4.37-.79,1.3,0,2.5,.18,3.6,.53,1.1,.35,2.05,.84,2.87,1.46,.81,.62,1.47,1.38,1.97,2.28,.5,.89,.82,1.87,.96,2.93h-5.65c-.22-.79-.63-1.39-1.24-1.81s-1.43-.63-2.46-.63c-.89,0-1.65,.16-2.26,.49s-1.11,.77-1.5,1.34c-.39,.57-.68,1.23-.85,1.97-.18,.75-.26,1.54-.26,2.38s.09,1.68,.26,2.44c.18,.76,.46,1.42,.85,1.99,.39,.57,.9,1.02,1.52,1.36,.62,.34,1.37,.51,2.24,.51,1.14,0,2.03-.25,2.68-.75s1.06-1.2,1.22-2.09h5.61c-.14,1.14-.46,2.17-.98,3.09Z"/><path class="b" d="M160.17,23.85c1.34,.53,2.48,1.27,3.41,2.24,.94,.96,1.65,2.12,2.16,3.48,.5,1.35,.75,2.85,.75,4.47s-.25,3.12-.75,4.47c-.5,1.35-1.22,2.51-2.16,3.48-.93,.96-2.07,1.71-3.41,2.24-1.34,.53-2.84,.79-4.49,.79s-3.14-.26-4.47-.79c-1.33-.53-2.46-1.27-3.39-2.24s-1.66-2.12-2.17-3.48-.77-2.85-.77-4.47,.26-3.12,.77-4.47,1.24-2.51,2.17-3.48c.93-.96,2.07-1.71,3.39-2.24,1.33-.53,2.82-.79,4.47-.79s3.15,.26,4.49,.79Zm-2.17,15.93c.65-.34,1.18-.79,1.58-1.36,.41-.57,.71-1.23,.92-1.99s.3-1.56,.3-2.4-.1-1.63-.3-2.38c-.2-.75-.51-1.4-.92-1.97-.41-.57-.93-1.02-1.58-1.36s-1.42-.51-2.32-.51-1.66,.17-2.3,.51c-.64,.34-1.17,.79-1.59,1.36s-.73,1.23-.93,1.97c-.2,.75-.3,1.54-.3,2.38s.1,1.64,.3,2.4,.51,1.42,.93,1.99c.42,.57,.95,1.02,1.59,1.36,.64,.34,1.4,.51,2.3,.51s1.67-.17,2.32-.51Z"/><path class="b" d="M170.27,14.93h5.85v5.16h-5.85v-5.16Zm.08,29.55V23.59h5.69v20.89h-5.69Z"/><path class="b" d="M196.63,23.69c1.02,.42,1.86,1.02,2.52,1.79,.66,.77,1.17,1.69,1.5,2.76,.34,1.07,.51,2.26,.51,3.56v12.68h-5.69v-11.87c0-1.46-.35-2.58-1.06-3.35-.7-.77-1.72-1.16-3.05-1.16-.7,0-1.34,.14-1.91,.43-.57,.28-1.05,.66-1.44,1.14-.39,.47-.7,1.03-.91,1.67-.22,.64-.33,1.31-.33,2.01v11.14h-5.69V23.59h5.53v1.95h.81c.46-.71,1.17-1.29,2.13-1.77s2.13-.71,3.52-.71,2.54,.21,3.56,.63Z"/><path class="b" d="M91.35,75.2c-.65,1.21-1.5,2.24-2.54,3.11s-2.26,1.54-3.64,2.01c-1.38,.47-2.93,.71-4.63,.71-2.22,0-4.19-.37-5.91-1.1s-3.17-1.76-4.35-3.09-2.08-2.91-2.7-4.76-.94-3.88-.94-6.1,.31-4.25,.94-6.1,1.52-3.43,2.7-4.76,2.64-2.36,4.37-3.09c1.73-.73,3.7-1.1,5.89-1.1,1.63,0,3.1,.22,4.43,.65s2.5,1.05,3.52,1.85c1.02,.8,1.86,1.75,2.52,2.84,.66,1.1,1.12,2.31,1.36,3.64h-6.34c-.71-2.38-2.53-3.58-5.49-3.58-1.3,0-2.43,.25-3.39,.75-.96,.5-1.76,1.19-2.4,2.05-.64,.87-1.11,1.88-1.42,3.05s-.47,2.42-.47,3.78,.16,2.62,.47,3.78,.79,2.18,1.42,3.05c.64,.87,1.44,1.55,2.4,2.05,.96,.5,2.09,.75,3.39,.75,1.57,0,2.86-.39,3.86-1.16,1-.77,1.65-1.85,1.95-3.23h6.3c-.22,1.44-.65,2.76-1.3,3.96Z"/><path class="b" d="M110.71,59.87c1.34,.53,2.48,1.27,3.41,2.24s1.65,2.12,2.15,3.48c.5,1.35,.75,2.84,.75,4.47s-.25,3.12-.75,4.47c-.5,1.36-1.22,2.51-2.15,3.48s-2.07,1.71-3.41,2.24c-1.34,.53-2.84,.79-4.49,.79s-3.14-.26-4.47-.79c-1.33-.53-2.46-1.27-3.39-2.24s-1.66-2.12-2.17-3.48c-.52-1.35-.77-2.85-.77-4.47s.26-3.12,.77-4.47c.52-1.36,1.24-2.51,2.17-3.48s2.07-1.71,3.39-2.24c1.33-.53,2.82-.79,4.47-.79s3.15,.26,4.49,.79Zm-2.17,15.93c.65-.34,1.18-.79,1.59-1.36,.41-.57,.71-1.23,.91-1.99s.3-1.56,.3-2.4-.1-1.63-.3-2.38-.51-1.4-.91-1.97c-.41-.57-.94-1.02-1.59-1.36s-1.42-.51-2.32-.51-1.66,.17-2.3,.51-1.17,.79-1.59,1.36c-.42,.57-.73,1.23-.93,1.97-.2,.75-.31,1.54-.31,2.38s.1,1.64,.31,2.4c.2,.76,.51,1.42,.93,1.99,.42,.57,.95,1.02,1.59,1.36s1.4,.51,2.3,.51,1.67-.17,2.32-.51Z"/><path class="b" d="M147.86,59.69c.93,.41,1.71,.98,2.32,1.73,.61,.75,1.06,1.64,1.34,2.68,.28,1.04,.43,2.2,.43,3.48v12.93h-5.69v-12.11c0-1.36-.24-2.41-.71-3.15s-1.28-1.12-2.42-1.12c-1.3,0-2.27,.44-2.91,1.32s-.96,1.99-.96,3.31v11.75h-5.69v-12.07c0-1.38-.24-2.45-.73-3.19s-1.3-1.12-2.44-1.12c-.65,0-1.22,.14-1.71,.41-.49,.27-.89,.64-1.22,1.12s-.56,1.02-.71,1.65c-.15,.62-.22,1.29-.22,1.99v11.22h-5.69v-20.89h5.53v1.95h.81c.52-.79,1.23-1.4,2.15-1.83s1.99-.65,3.21-.65c2.44,0,4.24,.84,5.41,2.52h.81c1.22-1.68,3.12-2.52,5.69-2.52,1.33,0,2.46,.2,3.39,.61Z"/><path class="b" d="M165.27,80.34c-.87-.46-1.57-1.06-2.11-1.79h-.81v10.08h-5.69v-29.02h5.53v1.95h.81c.57-.71,1.29-1.29,2.17-1.77s2.05-.71,3.52-.71,2.72,.28,3.86,.83c1.14,.56,2.11,1.32,2.91,2.3,.8,.98,1.41,2.13,1.83,3.48,.42,1.34,.63,2.8,.63,4.37s-.22,3.07-.65,4.41c-.43,1.34-1.04,2.5-1.83,3.48s-1.75,1.73-2.91,2.28c-1.15,.54-2.43,.81-3.84,.81s-2.55-.23-3.41-.69Zm-.35-16.04c-.64,.34-1.16,.8-1.57,1.38-.41,.58-.71,1.25-.91,2.01s-.3,1.54-.3,2.36,.1,1.6,.3,2.36,.51,1.42,.91,1.99c.41,.57,.93,1.02,1.57,1.36s1.4,.51,2.3,.51c.84,0,1.58-.16,2.21-.49,.64-.33,1.16-.77,1.57-1.32s.71-1.21,.91-1.97c.2-.76,.31-1.57,.31-2.44s-.1-1.68-.31-2.44c-.2-.76-.51-1.42-.91-1.99s-.93-1.02-1.57-1.34-1.38-.49-2.21-.49c-.89,0-1.66,.17-2.3,.51Z"/><path class="b" d="M185.92,80.4c-1-.42-1.84-1.02-2.5-1.79-.66-.77-1.16-1.69-1.48-2.76s-.49-2.26-.49-3.56v-12.68h5.69v11.87c0,1.46,.34,2.58,1.02,3.35s1.68,1.16,3.01,1.16c.71,0,1.34-.14,1.91-.43,.57-.29,1.05-.66,1.44-1.14,.39-.47,.69-1.03,.89-1.67,.2-.64,.3-1.31,.3-2.01v-11.14h5.69v20.89h-5.53v-1.95h-.81c-.46,.71-1.17,1.29-2.11,1.77-.95,.47-2.11,.71-3.5,.71s-2.53-.21-3.54-.63Z"/><path class="b" d="M219,64.37h-5.24v9.02c0,.7,.2,1.26,.59,1.67s1.08,.61,2.05,.61h2.6v4.84h-2.89c-1.19,0-2.28-.08-3.27-.24-.99-.16-1.84-.47-2.54-.91-.7-.45-1.25-1.08-1.65-1.89-.39-.81-.59-1.87-.59-3.17v-9.92h-3.7v-4.76h3.7v-5.85h5.69v5.85h5.24v4.76Z"/><path class="b" d="M227.41,70.71c.08,1.79,.54,3.17,1.38,4.15s2.07,1.46,3.7,1.46c1.08,0,1.94-.19,2.56-.57,.62-.38,1.07-.92,1.34-1.63h5.77c-.43,2.09-1.46,3.76-3.07,5.02-1.61,1.26-3.84,1.89-6.69,1.89-1.65,0-3.14-.26-4.45-.79-1.31-.53-2.43-1.27-3.35-2.24-.92-.96-1.63-2.12-2.11-3.48-.49-1.35-.73-2.87-.73-4.55s.24-3.16,.73-4.51c.49-1.36,1.19-2.5,2.11-3.44,.92-.93,2.03-1.66,3.31-2.17,1.29-.51,2.74-.77,4.37-.77s2.98,.25,4.23,.75c1.25,.5,2.3,1.19,3.15,2.07,.85,.88,1.51,1.92,1.97,3.13s.7,2.53,.73,3.96v1.71h-14.96Zm1.71-6.36c-.73,.66-1.23,1.52-1.5,2.58h8.94c-.16-1.06-.6-1.92-1.3-2.58-.71-.66-1.71-1-3.01-1s-2.4,.33-3.13,1Z"/><path class="b" d="M258.26,64.89c-2.2,0-3.81,.56-4.84,1.67-1.03,1.11-1.54,2.71-1.54,4.8v9.15h-5.69v-20.89h5.49v2.4h.81c.16-.24,.4-.51,.71-.79,.31-.28,.7-.54,1.16-.77s1.02-.43,1.67-.59c.65-.16,1.4-.24,2.24-.24h1.83v5.28h-1.83Z"/></g><path class="b" d="M30.12,14.86c-10.16,0-18.4,8.24-18.4,18.4s8.24,18.4,18.4,18.4,18.4-8.24,18.4-18.4S40.28,14.86,30.12,14.86Zm9.23,25.79l-1.85,1.85h-14.78l-1.85-1.85v-14.78l1.85-1.85h14.78l1.85,1.85v14.78Z"/></svg>