<?xml version="1.0" encoding="UTF-8"?>
<svg width="943px" height="1099px" viewBox="0 0 943 1099" version="1.1" xmlns="http://www.w3.org/2000/svg" xmlns:xlink="http://www.w3.org/1999/xlink">
    <title>Graph-2</title>
    <g id="BitcoinComputer-Landingpage" stroke="none" stroke-width="1" fill="none" fill-rule="evenodd">
        <g id="Network–BlueAndOrange" transform="translate(-959.000000, -2669.000000)">
            <g id="Graph-2" transform="translate(960.000000, 2669.000000)">
                <g id="Wires-graph-2" transform="translate(0.000000, 75.881554)" stroke="#A7BFFF">
                    <line x1="235.376996" y1="821.972995" x2="235.376996" y2="292.972995" id="Path-20"></line>
                    <line x1="870.383108" y1="404.533525" x2="870.383108" y2="49.0292207" id="Path-20-Copy"></line>
                    <polyline id="Path-2" points="284.318512 636.518757 306.648685 636.518757 314 628.518757 314 560.033525 322 551.948605 463 551.948605 471 543.830665 471 403.329078 479 395.533525 777 395.533525 785 387.533525 785 325.033525 793 317.033525 870.383108 317.033525"></polyline>
                    <polyline id="Path-15" points="287.881704 470.830159 306 470.830159 314 462.830159 314 403.533525 322 394.948605 463 394.948605 471.719345 387.424308 471.719345 246.755867 479 237.533525 620 237.533525 628 229.533525 628 167.618446 636 159.618446 870.383108 159.618446"></polyline>
                    <polyline id="Path-16" points="235.376996 317.033525 306 317.033525 314 308.510826 314 89.118446 322 81.118446 777 81.118446 785 73.118446 785 8 793 0 870.383108 0"></polyline>
                    <path d="M235.376996,822.39225 C235.376996,846.17576 235.376996,858.067515 235.376996,858.067515 C235.376996,858.067515 232.27716,860.734181 226.077488,866.067515 L8.18109131,866.067515 L0,874.067515 L0,1023.06751" id="Path-17"></path>
                    <path d="M298.180052,788.277363 C303.393351,788.277363 306,788.277363 306,788.277363 C306,788.277363 308.67507,785.693195 314.025209,780.52486 L314,718.159782 L322,709.067515 L620,709.448605 L628,701.067515 L628,560.118446 L636,552.118446 L777,551.948605 L785,544.120247 L785,481.215309 L792,473.7773 L870.383108,473.7773" id="Path"></path>
                </g>
                <g id="Gly-12" transform="translate(157.000000, 628.000000)">
                    <rect id="Rectangle" x="0" y="0" width="157" height="157"></rect>
                    <path d="M78.380052,141.628695 C43.696868,141.628695 15.580052,113.511879 15.580052,78.8286952 C15.580052,44.1455112 43.696868,16.0286952 78.380052,16.0286952 C113.063236,16.0286952 141.180052,44.1455112 141.180052,78.8286952 C141.180052,113.511879 113.063236,141.628695 78.380052,141.628695 Z" id="Fill-2" fill="#002A99"></path>
                    <polygon id="Fill-4" fill="#0046FF" points="69.077488 96.596762 69.077488 61.060754 64.635644 56.61891 29.099008 56.61891 24.657164 61.060754 24.657164 96.596762 29.099008 101.038606 64.635644 101.038606"></polygon>
                    <polygon id="Fill-6" fill="#FFFFFF" points="132.102814 96.596762 132.102814 61.060754 127.66097 56.61891 92.1243344 56.61891 87.6824904 61.060754 87.6824904 96.596762 92.1243344 101.038606 127.66097 101.038606"></polygon>
                    <path d="M62.5722872,78.8286952 C62.5722872,87.5020032 55.5411992,94.5337192 46.8672632,94.5337192 C38.1939552,94.5337192 31.1622392,87.5020032 31.1622392,78.8286952 C31.1622392,70.1553872 38.1939552,63.1236712 46.8672632,63.1236712 C55.5411992,63.1236712 62.5722872,70.1553872 62.5722872,78.8286952" id="Fill-8" fill="#A7BFFF"></path>
                    <polygon id="Fill-10" fill="#FF4B00" points="112.1137 98.8177468 129.881704 81.0497428 129.881704 76.6078988 112.1137 58.8398948 107.671856 58.8392668 89.903852 76.6078988 89.903852 81.0497428 107.671856 98.8177468"></polygon>
                    <path d="M52.4390048,78.8286952 C52.4390048,81.9058952 49.9445888,84.4003112 46.8673888,84.4003112 C43.7901888,84.4003112 41.2957728,81.9058952 41.2957728,78.8286952 C41.2957728,75.7514952 43.7901888,73.2570792 46.8673888,73.2570792 C49.9445888,73.2570792 52.4390048,75.7514952 52.4390048,78.8286952" id="Fill-25" fill="#FFFFFF"></path>
                </g>
                <g id="Gly-13" transform="translate(157.000000, 785.330159)">
                    <polygon id="Fill-1" points="0 157 157 157 157 0 0 0"></polygon>
                    <g id="Group-12" transform="translate(15.580052, 16.028695)">
                        <path d="M62.8,125.6 C28.116816,125.6 0,97.483184 0,62.8 C0,28.116816 28.116816,0 62.8,0 C97.483184,0 125.6,28.116816 125.6,62.8 C125.6,97.483184 97.483184,125.6 62.8,125.6 Z" id="Fill-2" fill="#000F38"></path>
                        <polygon id="Fill-6" fill="#FFFFFF" points="116.522762 80.5680668 116.522762 45.0320588 112.080918 40.5902148 76.5442824 40.5902148 72.1024384 45.0320588 72.1024384 80.5680668 76.5442824 85.0099108 112.080918 85.0099108"></polygon>
                        <polygon id="Fill-10" fill="#002A99" points="96.533648 82.7890516 114.301652 65.0210476 114.301652 60.5792036 96.533648 42.8111996 92.091804 42.8105716 74.3238 60.5792036 74.3238 65.0210476 92.091804 82.7890516"></polygon>
                    </g>
                </g>
                <g id="Gly-11" transform="translate(158.000000, 470.830159)">
                    <polygon id="Fill-1" points="0 157 157 157 157 0 0 0"></polygon>
                    <g id="Group-18" transform="translate(15.580052, 16.028695)">
                        <path d="M125.6,62.8 C125.6,97.483184 97.483184,125.6 62.8,125.6 C28.116816,125.6 0,97.483184 0,62.8 C0,28.116816 28.116816,0 62.8,0 C97.483184,0 125.6,28.116816 125.6,62.8" id="Fill-2" fill="#0046FF"></path>
                        <path d="M125.6,62.8 C125.6,97.483184 97.483184,125.6 62.8,125.6 C28.116816,125.6 0,97.483184 0,62.8 C0,28.116816 28.116816,0 62.8,0 C97.483184,0 125.6,28.116816 125.6,62.8 Z" id="Stroke-4" stroke="#0000FF" stroke-width="0.141"></path>
                        <polygon id="Fill-14" fill="#002A99" points="42.7845096 79.1359128 82.6788376 79.1359128 84.9980416 75.1198528 65.0502496 40.5698048 60.4130976 40.5698048 40.4659336 75.1198528"></polygon>
                    </g>
                </g>
                <g id="Gly-10" transform="translate(158.000000, 313.915079)">
                    <polygon id="Fill-1" points="0 157 157 157 157 0 0 0"></polygon>
                    <g id="Group-12" transform="translate(15.580052, 16.028695)">
                        <path d="M62.8,125.6 C28.116816,125.6 0,97.483184 0,62.8 C0,28.116816 28.116816,0 62.8,0 C97.483184,0 125.6,28.116816 125.6,62.8 C125.6,97.483184 97.483184,125.6 62.8,125.6 Z" id="Fill-2" fill="#A7BFFF"></path>
                        <polygon id="Fill-4" fill="#0046FF" points="53.497436 80.5680668 53.497436 45.0320588 49.055592 40.5902148 13.518956 40.5902148 9.077112 45.0320588 9.077112 80.5680668 13.518956 85.0099108 49.055592 85.0099108"></polygon>
                        <polygon id="Fill-6" fill="#0046FF" points="116.522762 80.5680668 116.522762 45.0320588 112.080918 40.5902148 76.5442824 40.5902148 72.1024384 45.0320588 72.1024384 80.5680668 76.5442824 85.0099108 112.080918 85.0099108"></polygon>
                        <path d="M46.9922352,62.8 C46.9922352,71.473308 39.9611472,78.505024 31.2872112,78.505024 C22.6139032,78.505024 15.5821872,71.473308 15.5821872,62.8 C15.5821872,54.126692 22.6139032,47.094976 31.2872112,47.094976 C39.9611472,47.094976 46.9922352,54.126692 46.9922352,62.8" id="Fill-8" fill="#002A99"></path>
                        <polygon id="Fill-10" fill="#002A99" points="96.533648 82.7890516 114.301652 65.0210476 114.301652 60.5792036 96.533648 42.8111996 92.091804 42.8105716 74.3238 60.5792036 74.3238 65.0210476 92.091804 82.7890516"></polygon>
                    </g>
                </g>
                <g id="Gly-7" transform="translate(785.000000, 157.000000)">
                    <polygon id="Fill-1" points="0 157 157 157 157 0 0 0"></polygon>
                    <g id="Group-12" transform="translate(15.580052, 16.028695)">
                        <path d="M62.8,125.6 C28.116816,125.6 0,97.483184 0,62.8 C0,28.116816 28.116816,0 62.8,0 C97.483184,0 125.6,28.116816 125.6,62.8 C125.6,97.483184 97.483184,125.6 62.8,125.6 Z" id="Fill-2" fill="#FFCF00"></path>
                        <polygon id="Fill-4" fill="#FFA500" points="53.497436 80.5680668 53.497436 45.0320588 49.055592 40.5902148 13.518956 40.5902148 9.077112 45.0320588 9.077112 80.5680668 13.518956 85.0099108 49.055592 85.0099108"></polygon>
                        <polygon id="Fill-6" fill="#FFA500" points="116.522762 80.5680668 116.522762 45.0320588 112.080918 40.5902148 76.5442824 40.5902148 72.1024384 45.0320588 72.1024384 80.5680668 76.5442824 85.0099108 112.080918 85.0099108"></polygon>
                        <path d="M46.9922352,62.8 C46.9922352,71.473308 39.9611472,78.505024 31.2872112,78.505024 C22.6139032,78.505024 15.5821872,71.473308 15.5821872,62.8 C15.5821872,54.126692 22.6139032,47.094976 31.2872112,47.094976 C39.9611472,47.094976 46.9922352,54.126692 46.9922352,62.8" id="Fill-8" fill="#FF4B00"></path>
                        <polygon id="Fill-10" fill="#FF4B00" points="96.533648 82.7890516 114.301652 65.0210476 114.301652 60.5792036 96.533648 42.8111996 92.091804 42.8105716 74.3238 60.5792036 74.3238 65.0210476 92.091804 82.7890516"></polygon>
                    </g>
                </g>
                <g id="Gly-8" transform="translate(862.500000, 392.915079) rotate(-180.000000) translate(-862.500000, -392.915079) translate(784.000000, 314.415079)">
                    <polygon id="Fill-1" points="0 157 157 157 157 0 0 0"></polygon>
                    <g id="Group-12" transform="translate(15.580052, 16.028695)">
                        <path d="M125.6,62.8 C125.6,97.483184 97.483184,125.6 62.8,125.6 C28.116816,125.6 0,97.483184 0,62.8 C0,28.116816 28.116816,0 62.8,0 C97.483184,0 125.6,28.116816 125.6,62.8" id="Fill-2" fill="#0046FF"></path>
                        <polygon id="Fill-6" fill="#FFFFFF" points="116.522762 80.5680668 116.522762 45.0320588 112.080918 40.5902148 76.5442824 40.5902148 72.1024384 45.0320588 72.1024384 80.5680668 76.5442824 85.0099108 112.080918 85.0099108"></polygon>
                        <polygon id="Fill-10" fill="#FFA500" points="96.533648 82.7890516 114.301652 65.0210476 114.301652 60.5792036 96.533648 42.8111996 92.091804 42.8105716 74.3238 60.5792036 74.3238 65.0210476 92.091804 82.7890516"></polygon>
                    </g>
                </g>
                <g id="Gly-9" transform="translate(862.500000, 549.415079) rotate(-90.000000) translate(-862.500000, -549.415079) translate(784.000000, 470.915079)">
                    <polygon id="Fill-1" points="0 157 157 157 157 0 0 0"></polygon>
                    <g id="Group-26" transform="translate(15.580052, 16.028695)">
                        <path d="M62.8,125.6 C28.116816,125.6 0,97.483184 0,62.8 C0,28.116816 28.116816,0 62.8,0 C97.483184,0 125.6,28.116816 125.6,62.8 C125.6,97.483184 97.483184,125.6 62.8,125.6 Z" id="Fill-2" fill="#002A99"></path>
                        <polygon id="Fill-4" fill="#FFFFFF" points="53.497436 80.5680668 53.497436 45.0320588 49.055592 40.5902148 13.518956 40.5902148 9.077112 45.0320588 9.077112 80.5680668 13.518956 85.0099108 49.055592 85.0099108"></polygon>
                        <polygon id="Fill-6" fill="#FFFFFF" points="116.522762 80.5680668 116.522762 45.0320588 112.080918 40.5902148 76.5442824 40.5902148 72.1024384 45.0320588 72.1024384 80.5680668 76.5442824 85.0099108 112.080918 85.0099108"></polygon>
                        <path d="M46.9922352,62.8 C46.9922352,71.473308 39.9611472,78.505024 31.2872112,78.505024 C22.6139032,78.505024 15.5821872,71.473308 15.5821872,62.8 C15.5821872,54.126692 22.6139032,47.094976 31.2872112,47.094976 C39.9611472,47.094976 46.9922352,54.126692 46.9922352,62.8" id="Fill-8" fill="#002A99"></path>
                        <polygon id="Fill-10" fill="#0046FF" points="96.533648 82.7890516 114.301652 65.0210476 114.301652 60.5792036 96.533648 42.8111996 92.091804 42.8105716 74.3238 60.5792036 74.3238 65.0210476 92.091804 82.7890516"></polygon>
                        <path d="M36.8589528,62.8 C36.8589528,65.8772 34.3645368,68.371616 31.2873368,68.371616 C28.2101368,68.371616 25.7157208,65.8772 25.7157208,62.8 C25.7157208,59.7228 28.2101368,57.228384 31.2873368,57.228384 C34.3645368,57.228384 36.8589528,59.7228 36.8589528,62.8" id="Fill-25" fill="#0046FF"></path>
                    </g>
                </g>
                <g id="Gly-6" transform="translate(785.000000, 0.000000)">
                    <polygon id="Fill-1" points="0 157 157 157 157 0 0 0"></polygon>
                    <path d="M78.380052,141.628695 C43.696868,141.628695 15.580052,113.511879 15.580052,78.8286952 C15.580052,44.1455112 43.696868,16.0286952 78.380052,16.0286952 C113.063236,16.0286952 141.180052,44.1455112 141.180052,78.8286952 C141.180052,113.511879 113.063236,141.628695 78.380052,141.628695 Z" id="Fill-2" fill="#0046FF"></path>
                    <polygon id="Fill-6" fill="#FFFFFF" points="122.783043 114.351076 122.783043 43.3060636 113.902495 34.4255156 42.8574832 34.4255156 33.9769352 43.3060636 33.9769352 114.351076 42.8574832 123.231624 113.902495 123.231624"></polygon>
                    <path d="M109.892715,78.8286952 C109.892715,96.2324592 95.7840672,110.341107 78.3803032,110.341107 C60.9759112,110.341107 46.8672632,96.2324592 46.8672632,78.8286952 C46.8672632,61.4249312 60.9759112,47.3162832 78.3803032,47.3162832 C95.7840672,47.3162832 109.892715,61.4249312 109.892715,78.8286952" id="Fill-10" fill="#A7BFFF"></path>
                    <polygon id="Fill-14" fill="#002A99" points="58.3645616 95.164608 98.2588896 95.164608 100.578094 91.148548 80.6303016 56.5985 75.9931496 56.5985 56.0459856 91.148548"></polygon>
                </g>
                <polygon id="Fill-10" fill="#0046FF" transform="translate(470.500000, 587.101336) scale(1, -1) translate(-470.500000, -587.101336) " points="470.888877 590.601391 474 587.490268 474 586.712514 470.888877 583.601391 470.111123 583.601281 467 586.712514 467 587.490268 470.111123 590.601391"></polygon>
                <polygon id="Fill-14" fill="#FFA500" points="625.300598 278.415079 630.472798 278.415079 630.773477 277.894407 628.187295 273.415079 627.5861 273.415079 625 277.894407"></polygon>
                <polygon id="Fill-10" fill="#0046FF" transform="translate(313.949786, 188.499961) scale(1, -1) rotate(-315.000000) translate(-313.949786, -188.499961) " points="314.338663 192.000016 317.449786 188.888893 317.449786 188.111139 314.338663 185.000016 313.56091 184.999906 310.449786 188.111139 310.449786 188.888893 313.56091 192.000016"></polygon>
                <circle id="Oval" fill="#0046FF" cx="628.066217" cy="713.481296" r="2.06621658"></circle>
            </g>
        </g>
    </g>
</svg>