<?xml version="1.0" encoding="UTF-8"?>
<svg width="489px" height="471px" viewBox="0 0 489 471" version="1.1" xmlns="http://www.w3.org/2000/svg" xmlns:xlink="http://www.w3.org/1999/xlink">
    <title>Graph-3</title>
    <g id="BitcoinComputer-Landingpage" stroke="none" stroke-width="1" fill="none" fill-rule="evenodd">
        <g id="Network–BlueAndOrange-ColorsSlightlyChanged" transform="translate(-1431.000000, -4553.000000)">
            <g id="PRICING" transform="translate(0.000000, 3767.500000)">
                <g id="Graph-3" transform="translate(1431.000000, 785.500000)">
                    <polyline id="Path-8" stroke="#000F38" points="314 314.949069 314 164.949069 322 157 489 157"></polyline>
                    <polyline id="Path-12" stroke="#000F38" points="314 314.949069 164.880052 314.949069 157 306.657516 157 86.5 148.880052 78.5 79.4259529 78.5093918 79.4259529 189.009392 87.8600616 197 115.734955 197"></polyline>
                    <path d="M160.5,133.5 C160.5,135.432921 158.933061,137 157,137 C155.067079,137 153.5,135.432921 153.5,133.5 C153.5,131.567079 155.067079,130 157,130 C158.933061,130 160.5,131.567079 160.5,133.5" id="Fill-8" fill="#000F38"></path>
                    <polygon id="Fill-10" fill="#002A99" transform="translate(79.900000, 172.499945) scale(1, -1) translate(-79.900000, -172.499945) " points="80.2888767 176 83.4 172.888877 83.4 172.111123 80.2888767 169 79.5111233 168.99989 76.4 172.111123 76.4 172.888877 79.5111233 176"></polygon>
                    <g id="Gly-15" transform="translate(157.000000, 157.000000)">
                        <polygon id="Fill-1" points="0 314 314 314 314 0 0 0"></polygon>
                        <g id="Group-26" transform="translate(31.160104, 32.057390)">
                            <path d="M125.6,251.2 C56.233632,251.2 0,194.966368 0,125.6 C0,56.233632 56.233632,0 125.6,0 C194.966368,0 251.2,56.233632 251.2,125.6 C251.2,194.966368 194.966368,251.2 125.6,251.2 Z" id="Fill-2" fill="#FFFFFF"></path>
                            <polygon id="Fill-4" fill="#0046FF" points="106.994872 161.136134 106.994872 90.0641176 98.111184 81.1804296 27.037912 81.1804296 18.154224 90.0641176 18.154224 161.136134 27.037912 170.019822 98.111184 170.019822"></polygon>
                            <polygon id="Fill-6" fill="#0046FF" points="233.045525 161.136134 233.045525 90.0641176 224.161837 81.1804296 153.088565 81.1804296 144.204877 90.0641176 144.204877 161.136134 153.088565 170.019822 224.161837 170.019822"></polygon>
                            <path d="M93.9844704,125.6 C93.9844704,142.946616 79.9222944,157.010048 62.5744224,157.010048 C45.2278064,157.010048 31.1643744,142.946616 31.1643744,125.6 C31.1643744,108.253384 45.2278064,94.189952 62.5744224,94.189952 C79.9222944,94.189952 93.9844704,108.253384 93.9844704,125.6" id="Fill-8" fill="#000F38"></path>
                            <polygon id="Fill-10" fill="#000F38" points="193.067296 165.578103 228.603304 130.042095 228.603304 121.158407 193.067296 85.6223992 184.183608 85.6211432 148.6476 121.158407 148.6476 130.042095 184.183608 165.578103"></polygon>
                            <path d="M73.7179056,125.6 C73.7179056,131.7544 68.7290736,136.743232 62.5746736,136.743232 C56.4202736,136.743232 51.4314416,131.7544 51.4314416,125.6 C51.4314416,119.4456 56.4202736,114.456768 62.5746736,114.456768 C68.7290736,114.456768 73.7179056,119.4456 73.7179056,125.6" id="Fill-25" fill="#FFFFFF"></path>
                        </g>
                    </g>
                    <g id="Gly-16" transform="translate(79.000000, 158.000000)">
                        <polygon id="Fill-1" points="0 78 78 78 78 0 0 0"></polygon>
                        <g id="Group-12" transform="translate(8.000000, 8.000000)" fill="#002A99">
                            <path d="M31,62 C13.87932,62 0,48.12068 0,31 C0,13.87932 13.87932,0 31,0 C48.12068,0 62,13.87932 62,31 C62,48.12068 48.12068,62 31,62 Z" id="Fill-2"></path>
                        </g>
                    </g>
                    <g id="Gly-14">
                        <polygon id="Fill-1" points="0 157 157 157 157 0 0 0"></polygon>
                        <g id="Group-12" transform="translate(15.580052, 16.028695)">
                            <path d="M125.6,62.8 C125.6,97.483184 97.483184,125.6 62.8,125.6 C28.116816,125.6 0,97.483184 0,62.8 C0,28.116816 28.116816,0 62.8,0 C97.483184,0 125.6,28.116816 125.6,62.8" id="Fill-2" fill="#000F38"></path>
                            <polygon id="Fill-6" fill="#0046FF" points="116.522762 80.5680668 116.522762 45.0320588 112.080918 40.5902148 76.5442824 40.5902148 72.1024384 45.0320588 72.1024384 80.5680668 76.5442824 85.0099108 112.080918 85.0099108"></polygon>
                            <polygon id="Fill-10" fill="#A7BFFF" points="96.533648 82.7890516 114.301652 65.0210476 114.301652 60.5792036 96.533648 42.8111996 92.091804 42.8105716 74.3238 60.5792036 74.3238 65.0210476 92.091804 82.7890516"></polygon>
                        </g>
                    </g>
                </g>
            </g>
        </g>
    </g>
</svg>