<?xml version="1.0" encoding="UTF-8"?>
<svg width="1922px" height="1885px" viewBox="0 0 1922 1885" version="1.1" xmlns="http://www.w3.org/2000/svg" xmlns:xlink="http://www.w3.org/1999/xlink">
    <title>Turning-Complete-Graph</title>
    <g id="BitcoinComputer-Landingpage" stroke="none" stroke-width="1" fill="none" fill-rule="evenodd">
        <g id="Turning-Complete-Graph" transform="translate(1.000000, 0.000000)">
            <g id="Group" transform="translate(0.000000, 0.500133)" stroke="#DFDFDF" stroke-linecap="square">
                <g id="Grid-Module">
                    <g id="V-Grid-line" transform="translate(1273.500000, 0.000000)">
                        <line x1="0.5" y1="0" x2="0.5" y2="1883.99973"></line>
                    </g>
                    <g id="V-Grid-line" transform="translate(645.500000, 0.000000)">
                        <line x1="0.5" y1="0" x2="0.5" y2="1883.99973"></line>
                    </g>
                    <g id="V-Grid-line" transform="translate(17.500000, 0.000000)">
                        <line x1="0.5" y1="0" x2="0.5" y2="1883.99973"></line>
                    </g>
                    <g id="V-Grid-line" transform="translate(1587.500000, 0.000000)">
                        <line x1="0.5" y1="0" x2="0.5" y2="1883.99973"></line>
                    </g>
                    <g id="V-Grid-line" transform="translate(959.500000, 0.000000)">
                        <line x1="0.5" y1="0" x2="0.5" y2="1883.99973"></line>
                    </g>
                    <g id="V-Grid-line" transform="translate(331.500000, 0.000000)">
                        <line x1="0.5" y1="0" x2="0.5" y2="1883.99973"></line>
                    </g>
                    <g id="V-Grid-line" transform="translate(1901.500000, 0.000000)">
                        <line x1="0.5" y1="0" x2="0.5" y2="1883.99973"></line>
                    </g>
                    <g id="H-Grid-line" transform="translate(0.000000, 313.583179)">
                        <line x1="1920" y1="0.500132661" x2="0" y2="0.500132661"></line>
                    </g>
                    <g id="H-Grid-line" transform="translate(0.000000, 627.666490)">
                        <line x1="1920" y1="0.500132661" x2="0" y2="0.500132661"></line>
                    </g>
                    <g id="H-Grid-line" transform="translate(0.000000, 941.749801)">
                        <line x1="1920" y1="0.500132661" x2="0" y2="0.500132661"></line>
                    </g>
                    <g id="H-Grid-line" transform="translate(0.000000, 1255.833112)">
                        <line x1="1920" y1="0.500132661" x2="0" y2="0.500132661"></line>
                    </g>
                    <g id="H-Grid-line" transform="translate(0.000000, 1569.916423)">
                        <line x1="1920" y1="0.500132661" x2="0" y2="0.500132661"></line>
                    </g>
                    <g id="H-Grid-line" transform="translate(0.000000, 1883.499602)">
                        <line x1="1920" y1="0.500132661" x2="0" y2="0.500132661"></line>
                    </g>
                </g>
            </g>
            <g id="Group-67" transform="translate(1276.000000, 316.583975)">
                <polygon id="Fill-1" points="0 631.167418 631 631.167418 631 0 0 0"></polygon>
                <g id="Group-66" transform="translate(61.778938, 64.438154)">
                    <path d="M504.8,252.466967 C504.8,391.899424 391.795472,504.933935 252.4,504.933935 C113.004528,504.933935 0,391.899424 0,252.466967 C0,113.034511 113.004528,0 252.4,0 C391.795472,0 504.8,113.034511 504.8,252.466967" id="Fill-2" fill="#4B7CFF"></path>
                    <polygon id="Fill-6" fill="#0046FF" points="479.543089 227.222038 277.638233 25.263612 227.163281 25.263612 25.2559012 227.222038 25.2559012 277.710382 227.160757 479.671333 277.638233 479.671333 479.543089 277.710382"></polygon>
                    <polygon id="Stroke-8" stroke="#0000FF" stroke-width="0.141" points="479.543089 227.222038 277.638233 25.263612 227.163281 25.263612 25.2559012 227.222038 25.2559012 277.710382 227.160757 479.671333 277.638233 479.671333 479.543089 277.710382"></polygon>
                    <path d="M379.052806,252.466967 C379.052806,322.433138 322.348622,379.152367 252.40101,379.152367 C182.450874,379.152367 125.74669,322.433138 125.74669,252.466967 C125.74669,182.500797 182.450874,125.781568 252.40101,125.781568 C322.348622,125.781568 379.052806,182.500797 379.052806,252.466967" id="Fill-10" fill="#002A99"></path>
                    <polygon id="Fill-14" fill="#000F38" points="265.066442 366.494178 366.39747 265.136265 366.39747 239.79868 265.066442 138.440766 239.733054 138.440766 138.402026 239.796155 138.402026 265.136265 239.733054 366.494178"></polygon>
                    <path d="M207.643675,297.235167 C182.926143,297.235167 162.888107,277.191815 162.888107,252.467725 C162.888107,227.74111 182.926143,207.697757 207.643675,207.697757 C232.361207,207.697757 252.399243,227.74111 252.399243,252.467725 C252.399243,277.191815 232.361207,297.235167 207.643675,297.235167" id="Fill-18" fill="#000F38"></path>
                    <polygon id="Fill-22" fill="#FFFFFF" points="272.287101 283.940509 322.630805 283.940509 328.925661 277.646508 328.925661 227.286922 322.630805 220.99292 272.287101 220.99292 265.994769 227.286922 265.994769 277.646508"></polygon>
                    <path d="M297.459205,274.813576 C285.121893,274.813576 275.119281,264.80831 275.119281,252.467725 C275.119281,240.124615 285.121893,230.119349 297.459205,230.119349 C309.796517,230.119349 319.799129,240.124615 319.799129,252.467725 C319.799129,264.80831 309.796517,274.813576 297.459205,274.813576" id="Fill-26" fill="#A7BFFF"></path>
                    <polygon id="Fill-34" fill="#002A99" points="298.583647 262.589125 307.579183 253.591203 307.579183 251.341722 298.583647 242.343799 296.334763 242.343799 287.339227 251.341722 287.339227 253.591203 296.334763 262.589125"></polygon>
                    <path d="M207.643675,283.890268 C190.293699,283.890268 176.229971,269.822809 176.229971,252.46823 C176.229971,235.11365 190.293699,221.043666 207.643675,221.043666 C224.993651,221.043666 239.057379,235.11365 239.057379,252.46823 C239.057379,269.822809 224.993651,283.890268 207.643675,283.890268" id="Fill-38" fill="#FFFFFF"></path>
                    <polygon id="Fill-42" fill="#A7BFFF" points="209.860252 272.420947 227.591352 254.685142 227.591352 250.249298 209.860252 232.513493 205.428108 232.513493 187.694484 250.249298 187.694484 254.685142 205.428108 272.420947"></polygon>
                    <path d="M215.627087,258.127024 C212.499851,258.127024 209.965755,255.592256 209.965755,252.46419 C209.965755,249.336125 212.499851,246.798831 215.627087,246.798831 C218.754323,246.798831 221.288419,249.336125 221.288419,252.46419 C221.288419,255.592256 218.754323,258.127024 215.627087,258.127024" id="Fill-46" fill="#0046FF"></path>
                    <path d="M199.667582,256.465034 C197.459082,256.465034 195.667042,254.672519 195.667042,252.463433 C195.667042,250.254347 197.459082,248.461831 199.667582,248.461831 C201.876082,248.461831 203.668122,250.254347 203.668122,252.463433 C203.668122,254.672519 201.876082,256.465034 199.667582,256.465034" id="Fill-54" fill="#0046FF"></path>
                </g>
            </g>
            <g id="Grid-Cell-Subdivision-Graph1" transform="translate(960.000000, 0.500133)" stroke="#DFDFDF" stroke-linecap="square">
                <g id="Grid-Cell-Sub" transform="translate(314.000000, 942.249934)">
                    <line x1="157.5" y1="0.500132661" x2="157.5" y2="313.583179" id="Line-4"></line>
                    <line x1="157.25" y1="-0.20847705" x2="157.25" y2="313.291523" id="Line-4-Copy" transform="translate(157.250000, 156.541523) rotate(-90.000000) translate(-157.250000, -156.541523) "></line>
                </g>
                <g id="Grid-Cell-Sub" transform="translate(314.000000, 1256.333245)">
                    <line x1="157.5" y1="0.500132661" x2="157.5" y2="313.583179" id="Line-4"></line>
                    <line x1="157.25" y1="-0.20847705" x2="157.25" y2="313.291523" id="Line-4-Copy" transform="translate(157.250000, 156.541523) rotate(-90.000000) translate(-157.250000, -156.541523) "></line>
                </g>
                <g id="Grid-Cell-Sub" transform="translate(628.000000, 1570.416556)">
                    <line x1="157.5" y1="0.500132661" x2="157.5" y2="313.583179" id="Line-4"></line>
                    <line x1="157.25" y1="-0.20847705" x2="157.25" y2="313.291523" id="Line-4-Copy" transform="translate(157.250000, 156.541523) rotate(-90.000000) translate(-157.250000, -156.541523) "></line>
                </g>
                <g id="Grid-Cell-Sub">
                    <line x1="157.5" y1="0.500132661" x2="157.5" y2="313.583179" id="Line-4"></line>
                    <line x1="157.25" y1="-0.20847705" x2="157.25" y2="313.291523" id="Line-4-Copy" transform="translate(157.250000, 156.541523) rotate(-90.000000) translate(-157.250000, -156.541523) "></line>
                </g>
            </g>
            <g id="Wire-3" transform="translate(1118.355904, 934.747944)">
                <polyline id="Path-3" stroke="#A7BFFF" points="9.21685121e-14 146.212581 0 16.0042452 8 8.00212258 462.644096 8.00212258 470.644096 -2.44761052e-14"></polyline>
                <polygon id="Fill-10" fill="#0046FF" transform="translate(55.644096, 8.002123) scale(1, -1) translate(-55.644096, -8.002123) " points="56.0329727 11.5031062 59.144096 8.39115742 59.144096 7.61319773 56.0329727 4.50124895 55.2552193 4.50113896 52.144096 7.61319773 52.144096 8.39115742 55.2552193 11.5031062"></polygon>
            </g>
            <polyline id="Wire-8" stroke="#A7BFFF" points="1357 964.192824 1357 947.420999 1361.66969 942.750066"></polyline>
            <g id="Wire-1" transform="translate(0.000000, 315.083577)">
                <polyline id="Path-11" stroke="#A7BFFF" points="0 2.95297093e-13 9.93276978 2.95297093e-13 17.9327698 8.00212258 17.9327698 305.080923 25.973877 313.083046 324.5 313.083046 332.5 321.085168 332.5 933.997745 340.5 941.999867 1110.5 941.999867 1118.5 933.747678 1118.5 856.593756"></polyline>
                <path d="M21.5,50.5133988 C21.5,52.4468331 19.9330614,54.0143274 18,54.0143274 C16.0670785,54.0143274 14.5,52.4468331 14.5,50.5133988 C14.5,48.5799645 16.0670785,47.0124702 18,47.0124702 C19.9330614,47.0124702 21.5,48.5799645 21.5,50.5133988" id="Fill-8" fill="#0046FF"></path>
                <polygon id="Fill-10" fill="#0046FF" transform="translate(332.000000, 872.731549) scale(1, -1) translate(-332.000000, -872.731549) " points="332.388877 876.232532 335.5 873.120584 335.5 872.342624 332.388877 869.230675 331.611123 869.230565 328.5 872.342624 328.5 873.120584 331.611123 876.232532"></polygon>
            </g>
            <g id="Wire-7" transform="translate(1588.000000, 1257.315273)" stroke="#A7BFFF">
                <polyline id="Path-10" transform="translate(166.000000, 4.001061) scale(1, -1) translate(-166.000000, -4.001061) " points="-2.85084456e-14 4.54868006e-13 8.5 8.00212258 332 8.00212258"></polyline>
            </g>
            <g id="Wire-6" transform="translate(1585.113261, 632.163659)">
                <polyline id="Path-7" stroke="#A7BFFF" points="85.2660265 1026.10471 10.8867385 1026.10471 2.88673853 1018.10258 2.88673853 0.00452820112"></polyline>
                <polygon id="Fill-14-Copy" fill="#0046FF" transform="translate(2.886739, 970.316018) rotate(-180.000000) translate(-2.886739, -970.316018) " points="0.300597613 972.816681 5.47279803 972.816681 5.77347706 972.295871 3.18729544 967.815355 2.58610021 967.815355 2.27373675e-13 972.295871"></polygon>
            </g>
            <g id="Wire-5" transform="translate(1505.613261, 1249.081321)">
                <polyline id="Path-6" stroke="#A7BFFF" points="82.3867385 0 73.8867385 8.00212258 9.63982629 8.00212258 2.76449853 16.0042452 2.76449853 268.485824"></polyline>
                <polygon id="Fill-14" fill="#0046FF" points="0.300597613 115.612186 5.47279803 115.612186 5.77347706 115.091376 3.18729544 110.61086 2.58610021 110.61086 0 115.091376"></polygon>
            </g>
            <g id="Wire-4" transform="translate(1118.000000, 1028.272751)">
                <polyline id="Path-4" stroke="#A7BFFF" points="295 0 164.537617 0 156.037617 8.00212258 156.037617 63.0494312 148.537617 70.8161918 0 70.8161918"></polyline>
                <path d="M156,50.2133192 C154.067079,50.2133192 152.5,48.6458249 152.5,46.7123906 C152.5,44.7789562 154.067079,43.2114619 156,43.2114619 C157.933061,43.2114619 159.5,44.7789562 159.5,46.7123906 C159.5,48.6458249 157.933061,50.2133192 156,50.2133192 Z" id="Fill-8" fill="#0046FF"></path>
            </g>
            <g id="Wire-2" transform="translate(960.000000, 0.000000)">
                <rect id="Rectangle" x="0" y="0" width="628" height="629.166888"></rect>
                <polyline id="Path-5" stroke="#A7BFFF" points="543.594757 628.666755 322.517929 628.666755 314 620.596148 314 246.065269 306 238.063147 228.548904 238.063147"></polyline>
                <polygon id="Fill-10" fill="#0046FF" transform="translate(315.000000, 567.150493) scale(1, -1) rotate(-315.000000) translate(-315.000000, -567.150493) " points="315.389393 570.651064 318.500516 567.53994 318.500413 566.762084 315.388464 563.650135 314.610607 563.649922 311.499484 566.761155 311.499587 567.539012 314.611536 570.65096"></polygon>
            </g>
            <g id="Gly-4" transform="translate(1430.500000, 1412.374635)">
                <polygon id="Fill-1" points="0 157.041656 157 157.041656 157 0 0 0"></polygon>
                <g id="Group-18" transform="translate(15.580052, 16.032948)">
                    <path d="M125.6,62.8166622 C125.6,97.5090485 97.483184,125.633324 62.8,125.633324 C28.116816,125.633324 0,97.5090485 0,62.8166622 C0,28.124276 28.116816,0 62.8,0 C97.483184,0 125.6,28.124276 125.6,62.8166622" id="Fill-2" fill="#0046FF"></path>
                    <path d="M125.6,62.8166622 C125.6,97.5090485 97.483184,125.633324 62.8,125.633324 C28.116816,125.633324 0,97.5090485 0,62.8166622 C0,28.124276 28.116816,0 62.8,0 C97.483184,0 125.6,28.124276 125.6,62.8166622 Z" id="Stroke-4" stroke="#0000FF" stroke-width="0.141"></path>
                    <polygon id="Fill-14" fill="#002A99" points="42.7845096 79.1569093 82.6788376 79.1569093 84.9980416 75.1397838 65.0502496 40.5805689 60.4130976 40.5805689 40.4659336 75.1397838"></polygon>
                </g>
            </g>
            <g id="Gly-5" transform="translate(1667.000000, 1648.937384) rotate(-180.000000) translate(-1667.000000, -1648.937384) translate(1588.500000, 1570.416556)">
                <polygon id="Fill-1" points="0 157.041656 157 157.041656 157 0 0 0"></polygon>
                <g id="Group-12" transform="translate(15.580052, 16.032948)">
                    <path d="M62.8,125.633324 C28.116816,125.633324 0,97.5090485 0,62.8166622 C0,28.124276 28.116816,0 62.8,0 C97.483184,0 125.6,28.124276 125.6,62.8166622 C125.6,97.5090485 97.483184,125.633324 62.8,125.633324 Z" id="Fill-2" fill="#002A99"></path>
                    <polygon id="Fill-4" fill="#FFFFFF" points="53.497436 80.5894433 53.497436 45.0440068 49.055592 40.6009843 13.518956 40.6009843 9.077112 45.0440068 9.077112 80.5894433 13.518956 85.0324658 49.055592 85.0324658"></polygon>
                    <polygon id="Fill-6" fill="#FFFFFF" points="116.522762 80.5894433 116.522762 45.0440068 112.080918 40.6009843 76.5442824 40.6009843 72.1024384 45.0440068 72.1024384 80.5894433 76.5442824 85.0324658 112.080918 85.0324658"></polygon>
                    <path d="M46.9922352,62.8166622 C46.9922352,71.4922715 39.9611472,78.5258531 31.2872112,78.5258531 C22.6139032,78.5258531 15.5821872,71.4922715 15.5821872,62.8166622 C15.5821872,54.141053 22.6139032,47.1074714 31.2872112,47.1074714 C39.9611472,47.1074714 46.9922352,54.141053 46.9922352,62.8166622" id="Fill-8" fill="#FFA500"></path>
                    <polygon id="Fill-10" fill="#FF4B00" points="96.533648 82.8110174 114.301652 65.0382991 114.301652 60.5952766 96.533648 42.8225584 92.091804 42.8219302 74.3238 60.5952766 74.3238 65.0382991 92.091804 82.8110174"></polygon>
                </g>
            </g>
            <g id="Gly-turningCompl" transform="translate(1275.000000, 315.583709)">
                <polygon id="Fill-1" points="0 627.166357 628 627.166357 628 0 0 0"></polygon>
                <g id="Group-66" transform="translate(61.000000, 65.017246)">
                    <path d="M503,251.566729 C503,390.502001 390.39842,503.133457 251.5,503.133457 C112.60158,503.133457 0,390.502001 0,251.566729 C0,112.631456 112.60158,0 251.5,0 C390.39842,0 503,112.631456 503,251.566729" id="Fill-2" fill="#4B7CFF"></path>
                    <path d="M503,251.566729 C503,390.502001 390.39842,503.133457 251.5,503.133457 C112.60158,503.133457 0,390.502001 0,251.566729 C0,112.631456 112.60158,0 251.5,0 C390.39842,0 503,112.631456 503,251.566729 Z" id="Stroke-4" stroke="#0046FF" stroke-width="0.141"></path>
                    <polygon id="Fill-6" fill="#0046FF" points="477.83315 226.411817 276.64824 25.1735278 226.35327 25.1735278 25.1658445 226.411817 25.1658445 276.720131 226.350755 477.960936 276.64824 477.960936 477.83315 276.720131"></polygon>
                    <polygon id="Stroke-8" stroke="#0000FF" stroke-width="0.141" points="477.83315 226.411817 276.64824 25.1735278 226.35327 25.1735278 25.1658445 226.411817 25.1658445 276.720131 226.350755 477.960936 276.64824 477.960936 477.83315 276.720131"></polygon>
                    <path d="M377.701191,251.566729 C377.701191,321.283416 321.199201,377.800397 251.501006,377.800397 C181.800296,377.800397 125.298306,321.283416 125.298306,251.566729 C125.298306,181.850041 181.800296,125.33306 251.501006,125.33306 C321.199201,125.33306 377.701191,181.850041 377.701191,251.566729" id="Fill-10" fill="#002A99"></path>
                    <polygon id="Fill-14" fill="#FFFFFF" points="264.121276 365.187345 365.090981 264.19085 365.090981 238.943613 264.121276 137.947119 238.878221 137.947119 137.908516 238.941098 137.908516 264.19085 238.878221 365.187345"></polygon>
                    <path d="M162.307286,251.567483 C162.307286,226.929038 182.273871,206.957155 206.903266,206.957155 C231.532661,206.957155 251.499246,226.929038 251.499246,251.567483 C251.499246,276.203413 231.532661,296.175296 206.903266,296.175296 C182.273871,296.175296 162.307286,276.203413 162.307286,251.567483 Z" id="Fill-18" fill="#A7BFFF"></path>
                    <polygon id="Fill-22" fill="#FFCF00" transform="translate(296.399596, 251.566421) rotate(-315.000000) translate(-296.399596, -251.566421) " points="271.317076 282.920422 321.48792 282.927077 327.760331 276.657198 327.753676 226.483964 321.479602 220.21242 271.308757 220.205766 265.038862 226.475645 265.045517 276.648879"></polygon>
                    <path d="M296.398534,273.833654 C284.105214,273.833654 274.138269,263.864065 274.138269,251.567483 C274.138269,239.268386 284.105214,229.298796 296.398534,229.298796 C308.691854,229.298796 318.658799,239.268386 318.658799,251.567483 C318.658799,263.864065 308.691854,273.833654 296.398534,273.833654" id="Fill-26" fill="#FFA500"></path>
                    <polygon id="Fill-34" fill="#FF4B00" points="297.518967 261.652793 306.482427 252.686955 306.482427 250.445496 297.518967 241.479657 295.278102 241.479657 286.314642 250.445496 286.314642 252.686955 295.278102 261.652793"></polygon>
                    <path d="M206.903266,282.877981 C189.615156,282.877981 175.601575,268.860683 175.601575,251.567986 C175.601575,234.275289 189.615156,220.255476 206.903266,220.255476 C224.191376,220.255476 238.204956,234.275289 238.204956,251.567986 C238.204956,268.860683 224.191376,282.877981 206.903266,282.877981" id="Fill-38" fill="#0046FF"></path>
                    <polygon id="Fill-42" fill="#002A99" points="209.111938 271.449557 226.779813 253.776994 226.779813 249.356966 209.111938 231.684404 204.695598 231.684404 187.025208 249.356966 187.025208 253.776994 204.695598 271.449557"></polygon>
                    <path d="M209.217066,251.563961 C209.217066,248.44705 211.742126,245.918804 214.858211,245.918804 C217.974296,245.918804 220.499356,248.44705 220.499356,251.563961 C220.499356,254.680873 217.974296,257.206603 214.858211,257.206603 C211.742126,257.206603 209.217066,254.680873 209.217066,251.563961 Z" id="Fill-46" fill="#FF4B00"></path>
                    <path d="M198.955614,255.550539 C196.754989,255.550539 194.969339,253.764416 194.969339,251.563207 C194.969339,249.361998 196.754989,247.575874 198.955614,247.575874 C201.156239,247.575874 202.941889,249.361998 202.941889,251.563207 C202.941889,253.764416 201.156239,255.550539 198.955614,255.550539" id="Fill-54" fill="#000F38"></path>
                </g>
            </g>
            <g id="Gly-1" transform="translate(1117.500000, 158.542054)">
                <polygon id="Fill-1" points="0 157.041656 157 157.041656 157 0 0 0"></polygon>
                <g id="Group-12" transform="translate(15.580052, 16.032948)">
                    <path d="M125.6,62.8166622 C125.6,97.5090485 97.483184,125.633324 62.8,125.633324 C28.116816,125.633324 0,97.5090485 0,62.8166622 C0,28.124276 28.116816,0 62.8,0 C97.483184,0 125.6,28.124276 125.6,62.8166622" id="Fill-2" fill="#A7BFFF"></path>
                    <polygon id="Fill-6" fill="#FFFFFF" points="116.522762 80.5894433 116.522762 45.0440068 112.080918 40.6009843 76.5442824 40.6009843 72.1024384 45.0440068 72.1024384 80.5894433 76.5442824 85.0324658 112.080918 85.0324658"></polygon>
                    <polygon id="Fill-10" fill="#002A99" points="96.533648 82.8110174 114.301652 65.0382991 114.301652 60.5952766 96.533648 42.8225584 92.091804 42.8219302 74.3238 60.5952766 74.3238 65.0382991 92.091804 82.8110174"></polygon>
                </g>
            </g>
            <g id="Gly-2" transform="translate(960.000000, 942.750066)">
                <polygon id="Fill-1" points="0 314.083311 314 314.083311 314 0 0 0"></polygon>
                <g id="Group-14" transform="translate(31.000000, 32.008490)">
                    <path d="M251,125.533298 C251,194.863488 194.811519,251.066596 125.499372,251.066596 C56.1884811,251.066596 0,194.863488 0,125.533298 C0,56.2031079 56.1884811,0 125.499372,0 C194.811519,0 251,56.2031079 251,125.533298" id="Fill-2" fill="#0046FF"></path>
                    <polygon id="Fill-4" fill="#FFFFFF" points="232.458442 161.169639 232.458442 89.8972084 223.552335 80.9875265 152.297197 80.9875265 143.39109 89.8972084 143.39109 161.169639 152.297197 170.079321 223.552335 170.079321"></polygon>
                    <path d="M107.204989,125.533298 C107.204989,150.075125 87.3153949,169.969897 62.779955,169.969897 C38.245771,169.969897 18.3561765,150.075125 18.3561765,125.533298 C18.3561765,100.991471 38.245771,81.096699 62.779955,81.096699 C87.3153949,81.096699 107.204989,100.991471 107.204989,125.533298" id="Fill-6" fill="#FFFFFF"></path>
                    <polygon id="Fill-8" fill="#002A99" points="84.9688599 143.288465 84.9688599 107.77788 80.5315059 103.339371 45.0301624 103.339371 40.5928084 107.77788 40.5928084 143.288465 45.0301624 147.726974 80.5315059 147.726974"></polygon>
                    <polygon id="Fill-12" fill="#002A99" points="169.260122 141.064688 208.302055 141.064688 210.570343 137.133724 191.050004 103.314119 186.512172 103.314119 166.990578 137.133724"></polygon>
                </g>
            </g>
            <g id="Gly-3" transform="translate(1274.000000, 940.749536)">
                <polygon id="Fill-1" points="0 157.041656 157 157.041656 157 0 0 0"></polygon>
                <g id="Group-26" transform="translate(14.867424, 15.466224)">
                    <path d="M62.7405303,125.514354 C28.0901902,125.514354 0,97.4167104 0,62.7571768 C0,28.0976432 28.0901902,0 62.7405303,0 C97.3908704,0 125.481061,28.0976432 125.481061,62.7571768 C125.481061,97.4167104 97.3908704,125.514354 62.7405303,125.514354 Z" id="Fill-2" fill="#000F38"></path>
                    <polygon id="Fill-4" fill="#FFFFFF" points="53.4467755 80.5131275 53.4467755 45.0013515 49.0091378 40.5625364 13.506154 40.5625364 9.06851625 45.0013515 9.06851625 80.5131275 13.506154 84.9519427 49.0091378 84.9519427"></polygon>
                    <polygon id="Fill-6" fill="#FFFFFF" points="116.412419 80.5131275 116.412419 45.0013515 111.974781 40.5625364 76.4717973 40.5625364 72.0341596 45.0013515 72.0341596 80.5131275 76.4717973 84.9519427 111.974781 84.9519427"></polygon>
                    <path d="M31.2575832,78.4514915 C22.5924885,78.4514915 15.5674313,71.4245705 15.5674313,62.7571768 C15.5674313,54.0897831 22.5924885,47.062862 31.2575832,47.062862 C39.9233052,47.062862 46.947735,54.0897831 46.947735,62.7571768 C46.947735,71.4245705 39.9233052,78.4514915 31.2575832,78.4514915 Z" id="Fill-8" fill="#FFA500"></path>
                    <polygon id="Fill-10" fill="#FFCF00" points="96.4422336 82.7325979 114.193412 64.9767098 114.193412 60.5378947 96.4422336 42.7820067 92.0045959 42.7813791 74.2534176 60.5378947 74.2534176 64.9767098 92.0045959 82.7325979"></polygon>
                    <path d="M31.2577086,68.3249935 C28.1834227,68.3249935 25.6913688,65.8322784 25.6913688,62.7571768 C25.6913688,59.6820751 28.1834227,57.18936 31.2577086,57.18936 C34.3319946,57.18936 36.8240485,59.6820751 36.8240485,62.7571768 C36.8240485,65.8322784 34.3319946,68.3249935 31.2577086,68.3249935 Z" id="Fill-25" fill="#FF4B00"></path>
                </g>
            </g>
        </g>
    </g>
</svg>