<?xml version="1.0" encoding="UTF-8"?>
<svg width="157px" height="157px" viewBox="0 0 157 157" version="1.1" xmlns="http://www.w3.org/2000/svg" xmlns:xlink="http://www.w3.org/1999/xlink">
    <title>Gly-12</title>
    <g id="BitcoinComputer-Landingpage" stroke="none" stroke-width="1" fill="none" fill-rule="evenodd">
        <g id="Network–BlueAndOrange-ColorsSlightlyChanged" transform="translate(-1117.000000, -3297.000000)">
            <g id="Graph-2" transform="translate(960.000000, 2669.000000)">
                <g id="Gly-12" transform="translate(157.000000, 628.000000)">
                    <rect id="Rectangle" x="0" y="0" width="157" height="157"></rect>
                    <path d="M78.380052,141.628695 C43.696868,141.628695 15.580052,113.511879 15.580052,78.8286952 C15.580052,44.1455112 43.696868,16.0286952 78.380052,16.0286952 C113.063236,16.0286952 141.180052,44.1455112 141.180052,78.8286952 C141.180052,113.511879 113.063236,141.628695 78.380052,141.628695 Z" id="Fill-2" fill="#002A99"></path>
                    <polygon id="Fill-4" fill="#0046FF" points="69.077488 96.596762 69.077488 61.060754 64.635644 56.61891 29.099008 56.61891 24.657164 61.060754 24.657164 96.596762 29.099008 101.038606 64.635644 101.038606"></polygon>
                    <polygon id="Fill-6" fill="#FFFFFF" points="132.102814 96.596762 132.102814 61.060754 127.66097 56.61891 92.1243344 56.61891 87.6824904 61.060754 87.6824904 96.596762 92.1243344 101.038606 127.66097 101.038606"></polygon>
                    <path d="M62.5722872,78.8286952 C62.5722872,87.5020032 55.5411992,94.5337192 46.8672632,94.5337192 C38.1939552,94.5337192 31.1622392,87.5020032 31.1622392,78.8286952 C31.1622392,70.1553872 38.1939552,63.1236712 46.8672632,63.1236712 C55.5411992,63.1236712 62.5722872,70.1553872 62.5722872,78.8286952" id="Fill-8" fill="#A7BFFF"></path>
                    <polygon id="Fill-10" fill="#FF4B00" points="112.1137 98.8177468 129.881704 81.0497428 129.881704 76.6078988 112.1137 58.8398948 107.671856 58.8392668 89.903852 76.6078988 89.903852 81.0497428 107.671856 98.8177468"></polygon>
                    <path d="M52.4390048,78.8286952 C52.4390048,81.9058952 49.9445888,84.4003112 46.8673888,84.4003112 C43.7901888,84.4003112 41.2957728,81.9058952 41.2957728,78.8286952 C41.2957728,75.7514952 43.7901888,73.2570792 46.8673888,73.2570792 C49.9445888,73.2570792 52.4390048,75.7514952 52.4390048,78.8286952" id="Fill-25" fill="#FFFFFF"></path>
                </g>
            </g>
        </g>
    </g>
</svg>