<?xml version="1.0" encoding="UTF-8"?>
<svg width="314px" height="315px" viewBox="0 0 314 315" version="1.1" xmlns="http://www.w3.org/2000/svg" xmlns:xlink="http://www.w3.org/1999/xlink">
    <title>Gly-2</title>
    <g id="BitcoinComputer-Landingpage" stroke="none" stroke-width="1" fill="none" fill-rule="evenodd">
        <g id="Network–BlueAndOrange-ColorsSlightlyChanged" transform="translate(-960.000000, -942.000000)">
            <g id="Gly-2" transform="translate(960.000000, 942.750066)">
                <polygon id="Fill-1" points="0 314.083311 314 314.083311 314 0 0 0"></polygon>
                <g id="Group-14" transform="translate(31.000000, 32.008490)">
                    <path d="M251,125.533298 C251,194.863488 194.811519,251.066596 125.499372,251.066596 C56.1884811,251.066596 0,194.863488 0,125.533298 C0,56.2031079 56.1884811,0 125.499372,0 C194.811519,0 251,56.2031079 251,125.533298" id="Fill-2" fill="#0046FF"></path>
                    <polygon id="Fill-4" fill="#FFFFFF" points="232.458442 161.169639 232.458442 89.8972084 223.552335 80.9875265 152.297197 80.9875265 143.39109 89.8972084 143.39109 161.169639 152.297197 170.079321 223.552335 170.079321"></polygon>
                    <path d="M107.204989,125.533298 C107.204989,150.075125 87.3153949,169.969897 62.779955,169.969897 C38.245771,169.969897 18.3561765,150.075125 18.3561765,125.533298 C18.3561765,100.991471 38.245771,81.096699 62.779955,81.096699 C87.3153949,81.096699 107.204989,100.991471 107.204989,125.533298" id="Fill-6" fill="#FFFFFF"></path>
                    <polygon id="Fill-8" fill="#002A99" points="84.9688599 143.288465 84.9688599 107.77788 80.5315059 103.339371 45.0301624 103.339371 40.5928084 107.77788 40.5928084 143.288465 45.0301624 147.726974 80.5315059 147.726974"></polygon>
                    <polygon id="Fill-12" fill="#002A99" points="169.260122 141.064688 208.302055 141.064688 210.570343 137.133724 191.050004 103.314119 186.512172 103.314119 166.990578 137.133724"></polygon>
                </g>
            </g>
        </g>
    </g>
</svg>