<?xml version="1.0" encoding="UTF-8"?>
<svg width="158px" height="158px" viewBox="0 0 158 158" version="1.1" xmlns="http://www.w3.org/2000/svg" xmlns:xlink="http://www.w3.org/1999/xlink">
    <title>Gly-4</title>
    <g id="BitcoinComputer-Landingpage" stroke="none" stroke-width="1" fill="none" fill-rule="evenodd">
        <g id="Network–BlueAndOrange-ColorsSlightlyChanged" transform="translate(-1430.000000, -1412.000000)">
            <g id="Gly-4" transform="translate(1430.500000, 1412.374635)">
                <polygon id="Fill-1" points="0 157.041656 157 157.041656 157 0 0 0"></polygon>
                <g id="Group-18" transform="translate(15.580052, 16.032948)">
                    <path d="M125.6,62.8166622 C125.6,97.5090485 97.483184,125.633324 62.8,125.633324 C28.116816,125.633324 0,97.5090485 0,62.8166622 C0,28.124276 28.116816,0 62.8,0 C97.483184,0 125.6,28.124276 125.6,62.8166622" id="Fill-2" fill="#0046FF"></path>
                    <path d="M125.6,62.8166622 C125.6,97.5090485 97.483184,125.633324 62.8,125.633324 C28.116816,125.633324 0,97.5090485 0,62.8166622 C0,28.124276 28.116816,0 62.8,0 C97.483184,0 125.6,28.124276 125.6,62.8166622 Z" id="Stroke-4" stroke="#0000FF" stroke-width="0.141"></path>
                    <polygon id="Fill-14" fill="#002A99" points="42.7845096 79.1569093 82.6788376 79.1569093 84.9980416 75.1397838 65.0502496 40.5805689 60.4130976 40.5805689 40.4659336 75.1397838"></polygon>
                </g>
            </g>
        </g>
    </g>
</svg>