<?xml version="1.0" encoding="UTF-8"?>
<svg width="157px" height="158px" viewBox="0 0 157 158" version="1.1" xmlns="http://www.w3.org/2000/svg" xmlns:xlink="http://www.w3.org/1999/xlink">
    <title>Gly-11</title>
    <g id="BitcoinComputer-Landingpage" stroke="none" stroke-width="1" fill="none" fill-rule="evenodd">
        <g id="Network–BlueAndOrange-ColorsSlightlyChanged" transform="translate(-1118.000000, -3139.000000)">
            <g id="Graph-2" transform="translate(960.000000, 2669.000000)">
                <g id="Gly-11" transform="translate(158.000000, 470.830159)">
                    <polygon id="Fill-1" points="0 157 157 157 157 0 0 0"></polygon>
                    <g id="Group-18" transform="translate(15.580052, 16.028695)">
                        <path d="M125.6,62.8 C125.6,97.483184 97.483184,125.6 62.8,125.6 C28.116816,125.6 0,97.483184 0,62.8 C0,28.116816 28.116816,0 62.8,0 C97.483184,0 125.6,28.116816 125.6,62.8" id="Fill-2" fill="#0046FF"></path>
                        <path d="M125.6,62.8 C125.6,97.483184 97.483184,125.6 62.8,125.6 C28.116816,125.6 0,97.483184 0,62.8 C0,28.116816 28.116816,0 62.8,0 C97.483184,0 125.6,28.116816 125.6,62.8 Z" id="Stroke-4" stroke="#0000FF" stroke-width="0.141"></path>
                        <polygon id="Fill-14" fill="#002A99" points="42.7845096 79.1359128 82.6788376 79.1359128 84.9980416 75.1198528 65.0502496 40.5698048 60.4130976 40.5698048 40.4659336 75.1198528"></polygon>
                    </g>
                </g>
            </g>
        </g>
    </g>
</svg>