<?xml version="1.0" encoding="UTF-8"?>
<svg width="628px" height="628px" viewBox="0 0 628 628" version="1.1" xmlns="http://www.w3.org/2000/svg" xmlns:xlink="http://www.w3.org/1999/xlink">
    <title>Gly-turningCompl</title>
    <g id="BitcoinComputer-Landingpage" stroke="none" stroke-width="1" fill="none" fill-rule="evenodd">
        <g id="Network–BlueAndOrange-ColorsSlightlyChanged" transform="translate(-1275.000000, -315.000000)">
            <g id="Gly-turningCompl" transform="translate(1275.000000, 315.583709)">
                <polygon id="Fill-1" points="0 627.166357 628 627.166357 628 0 0 0"></polygon>
                <g id="Group-66" transform="translate(61.000000, 65.017246)">
                    <path d="M503,251.566729 C503,390.502001 390.39842,503.133457 251.5,503.133457 C112.60158,503.133457 0,390.502001 0,251.566729 C0,112.631456 112.60158,0 251.5,0 C390.39842,0 503,112.631456 503,251.566729" id="Fill-2" fill="#4B7CFF"></path>
                    <path d="M503,251.566729 C503,390.502001 390.39842,503.133457 251.5,503.133457 C112.60158,503.133457 0,390.502001 0,251.566729 C0,112.631456 112.60158,0 251.5,0 C390.39842,0 503,112.631456 503,251.566729 Z" id="Stroke-4" stroke="#0046FF" stroke-width="0.141"></path>
                    <polygon id="Fill-6" fill="#0046FF" points="477.83315 226.411817 276.64824 25.1735278 226.35327 25.1735278 25.1658445 226.411817 25.1658445 276.720131 226.350755 477.960936 276.64824 477.960936 477.83315 276.720131"></polygon>
                    <polygon id="Stroke-8" stroke="#0000FF" stroke-width="0.141" points="477.83315 226.411817 276.64824 25.1735278 226.35327 25.1735278 25.1658445 226.411817 25.1658445 276.720131 226.350755 477.960936 276.64824 477.960936 477.83315 276.720131"></polygon>
                    <path d="M377.701191,251.566729 C377.701191,321.283416 321.199201,377.800397 251.501006,377.800397 C181.800296,377.800397 125.298306,321.283416 125.298306,251.566729 C125.298306,181.850041 181.800296,125.33306 251.501006,125.33306 C321.199201,125.33306 377.701191,181.850041 377.701191,251.566729" id="Fill-10" fill="#002A99"></path>
                    <polygon id="Fill-14" fill="#FFFFFF" points="264.121276 365.187345 365.090981 264.19085 365.090981 238.943613 264.121276 137.947119 238.878221 137.947119 137.908516 238.941098 137.908516 264.19085 238.878221 365.187345"></polygon>
                    <path d="M162.307286,251.567483 C162.307286,226.929038 182.273871,206.957155 206.903266,206.957155 C231.532661,206.957155 251.499246,226.929038 251.499246,251.567483 C251.499246,276.203413 231.532661,296.175296 206.903266,296.175296 C182.273871,296.175296 162.307286,276.203413 162.307286,251.567483 Z" id="Fill-18" fill="#A7BFFF"></path>
                    <polygon id="Fill-22" fill="#FFCF00" transform="translate(296.399596, 251.566421) rotate(-315.000000) translate(-296.399596, -251.566421) " points="271.317076 282.920422 321.48792 282.927077 327.760331 276.657198 327.753676 226.483964 321.479602 220.21242 271.308757 220.205766 265.038862 226.475645 265.045517 276.648879"></polygon>
                    <path d="M296.398534,273.833654 C284.105214,273.833654 274.138269,263.864065 274.138269,251.567483 C274.138269,239.268386 284.105214,229.298796 296.398534,229.298796 C308.691854,229.298796 318.658799,239.268386 318.658799,251.567483 C318.658799,263.864065 308.691854,273.833654 296.398534,273.833654" id="Fill-26" fill="#FFA500"></path>
                    <polygon id="Fill-34" fill="#FF4B00" points="297.518967 261.652793 306.482427 252.686955 306.482427 250.445496 297.518967 241.479657 295.278102 241.479657 286.314642 250.445496 286.314642 252.686955 295.278102 261.652793"></polygon>
                    <path d="M206.903266,282.877981 C189.615156,282.877981 175.601575,268.860683 175.601575,251.567986 C175.601575,234.275289 189.615156,220.255476 206.903266,220.255476 C224.191376,220.255476 238.204956,234.275289 238.204956,251.567986 C238.204956,268.860683 224.191376,282.877981 206.903266,282.877981" id="Fill-38" fill="#0046FF"></path>
                    <polygon id="Fill-42" fill="#002A99" points="209.111938 271.449557 226.779813 253.776994 226.779813 249.356966 209.111938 231.684404 204.695598 231.684404 187.025208 249.356966 187.025208 253.776994 204.695598 271.449557"></polygon>
                    <path d="M209.217066,251.563961 C209.217066,248.44705 211.742126,245.918804 214.858211,245.918804 C217.974296,245.918804 220.499356,248.44705 220.499356,251.563961 C220.499356,254.680873 217.974296,257.206603 214.858211,257.206603 C211.742126,257.206603 209.217066,254.680873 209.217066,251.563961 Z" id="Fill-46" fill="#FF4B00"></path>
                    <path d="M198.955614,255.550539 C196.754989,255.550539 194.969339,253.764416 194.969339,251.563207 C194.969339,249.361998 196.754989,247.575874 198.955614,247.575874 C201.156239,247.575874 202.941889,249.361998 202.941889,251.563207 C202.941889,253.764416 201.156239,255.550539 198.955614,255.550539" id="Fill-54" fill="#000F38"></path>
                </g>
            </g>
        </g>
    </g>
</svg>