<?xml version="1.0" encoding="UTF-8"?>
<svg width="314px" height="314px" viewBox="0 0 314 314" version="1.1" xmlns="http://www.w3.org/2000/svg" xmlns:xlink="http://www.w3.org/1999/xlink">
    <title>Gly-15</title>
    <g id="BitcoinComputer-Landingpage" stroke="none" stroke-width="1" fill="none" fill-rule="evenodd">
        <g id="Network–BlueAndOrange-ColorsSlightlyChanged" transform="translate(-1588.000000, -4710.000000)">
            <g id="PRICING" transform="translate(0.000000, 3767.500000)">
                <g id="Graph-3" transform="translate(1431.000000, 785.500000)">
                    <g id="Gly-15" transform="translate(157.000000, 157.000000)">
                        <polygon id="Fill-1" points="0 314 314 314 314 0 0 0"></polygon>
                        <g id="Group-26" transform="translate(31.160104, 32.057390)">
                            <path d="M125.6,251.2 C56.233632,251.2 0,194.966368 0,125.6 C0,56.233632 56.233632,0 125.6,0 C194.966368,0 251.2,56.233632 251.2,125.6 C251.2,194.966368 194.966368,251.2 125.6,251.2 Z" id="Fill-2" fill="#FFFFFF"></path>
                            <polygon id="Fill-4" fill="#0046FF" points="106.994872 161.136134 106.994872 90.0641176 98.111184 81.1804296 27.037912 81.1804296 18.154224 90.0641176 18.154224 161.136134 27.037912 170.019822 98.111184 170.019822"></polygon>
                            <polygon id="Fill-6" fill="#0046FF" points="233.045525 161.136134 233.045525 90.0641176 224.161837 81.1804296 153.088565 81.1804296 144.204877 90.0641176 144.204877 161.136134 153.088565 170.019822 224.161837 170.019822"></polygon>
                            <path d="M93.9844704,125.6 C93.9844704,142.946616 79.9222944,157.010048 62.5744224,157.010048 C45.2278064,157.010048 31.1643744,142.946616 31.1643744,125.6 C31.1643744,108.253384 45.2278064,94.189952 62.5744224,94.189952 C79.9222944,94.189952 93.9844704,108.253384 93.9844704,125.6" id="Fill-8" fill="#000F38"></path>
                            <polygon id="Fill-10" fill="#000F38" points="193.067296 165.578103 228.603304 130.042095 228.603304 121.158407 193.067296 85.6223992 184.183608 85.6211432 148.6476 121.158407 148.6476 130.042095 184.183608 165.578103"></polygon>
                            <path d="M73.7179056,125.6 C73.7179056,131.7544 68.7290736,136.743232 62.5746736,136.743232 C56.4202736,136.743232 51.4314416,131.7544 51.4314416,125.6 C51.4314416,119.4456 56.4202736,114.456768 62.5746736,114.456768 C68.7290736,114.456768 73.7179056,119.4456 73.7179056,125.6" id="Fill-25" fill="#FFFFFF"></path>
                        </g>
                    </g>
                </g>
            </g>
        </g>
    </g>
</svg>