<?xml version="1.0" encoding="UTF-8"?>
<svg width="157px" height="158px" viewBox="0 0 157 158" version="1.1" xmlns="http://www.w3.org/2000/svg" xmlns:xlink="http://www.w3.org/1999/xlink">
    <title>Gly-10</title>
    <g id="BitcoinComputer-Landingpage" stroke="none" stroke-width="1" fill="none" fill-rule="evenodd">
        <g id="Network–BlueAndOrange-ColorsSlightlyChanged" transform="translate(-1118.000000, -2982.000000)">
            <g id="Graph-2" transform="translate(960.000000, 2669.000000)">
                <g id="Gly-10" transform="translate(158.000000, 313.915079)">
                    <polygon id="Fill-1" points="0 157 157 157 157 0 0 0"></polygon>
                    <g id="Group-12" transform="translate(15.580052, 16.028695)">
                        <path d="M62.8,125.6 C28.116816,125.6 0,97.483184 0,62.8 C0,28.116816 28.116816,0 62.8,0 C97.483184,0 125.6,28.116816 125.6,62.8 C125.6,97.483184 97.483184,125.6 62.8,125.6 Z" id="Fill-2" fill="#A7BFFF"></path>
                        <polygon id="Fill-4" fill="#0046FF" points="53.497436 80.5680668 53.497436 45.0320588 49.055592 40.5902148 13.518956 40.5902148 9.077112 45.0320588 9.077112 80.5680668 13.518956 85.0099108 49.055592 85.0099108"></polygon>
                        <polygon id="Fill-6" fill="#0046FF" points="116.522762 80.5680668 116.522762 45.0320588 112.080918 40.5902148 76.5442824 40.5902148 72.1024384 45.0320588 72.1024384 80.5680668 76.5442824 85.0099108 112.080918 85.0099108"></polygon>
                        <path d="M46.9922352,62.8 C46.9922352,71.473308 39.9611472,78.505024 31.2872112,78.505024 C22.6139032,78.505024 15.5821872,71.473308 15.5821872,62.8 C15.5821872,54.126692 22.6139032,47.094976 31.2872112,47.094976 C39.9611472,47.094976 46.9922352,54.126692 46.9922352,62.8" id="Fill-8" fill="#002A99"></path>
                        <polygon id="Fill-10" fill="#002A99" points="96.533648 82.7890516 114.301652 65.0210476 114.301652 60.5792036 96.533648 42.8111996 92.091804 42.8105716 74.3238 60.5792036 74.3238 65.0210476 92.091804 82.7890516"></polygon>
                    </g>
                </g>
            </g>
        </g>
    </g>
</svg>