<?xml version="1.0" encoding="UTF-8"?>
<svg width="158px" height="158px" viewBox="0 0 158 158" version="1.1" xmlns="http://www.w3.org/2000/svg" xmlns:xlink="http://www.w3.org/1999/xlink">
    <title>Gly-1</title>
    <g id="BitcoinComputer-Landingpage" stroke="none" stroke-width="1" fill="none" fill-rule="evenodd">
        <g id="Network–BlueAndOrange-ColorsSlightlyChanged" transform="translate(-1117.000000, -158.000000)">
            <g id="Gly-1" transform="translate(1117.500000, 158.542054)">
                <polygon id="Fill-1" points="0 157.041656 157 157.041656 157 0 0 0"></polygon>
                <g id="Group-12" transform="translate(15.580052, 16.032948)">
                    <path d="M125.6,62.8166622 C125.6,97.5090485 97.483184,125.633324 62.8,125.633324 C28.116816,125.633324 0,97.5090485 0,62.8166622 C0,28.124276 28.116816,0 62.8,0 C97.483184,0 125.6,28.124276 125.6,62.8166622" id="Fill-2" fill="#A7BFFF"></path>
                    <polygon id="Fill-6" fill="#FFFFFF" points="116.522762 80.5894433 116.522762 45.0440068 112.080918 40.6009843 76.5442824 40.6009843 72.1024384 45.0440068 72.1024384 80.5894433 76.5442824 85.0324658 112.080918 85.0324658"></polygon>
                    <polygon id="Fill-10" fill="#002A99" points="96.533648 82.8110174 114.301652 65.0382991 114.301652 60.5952766 96.533648 42.8225584 92.091804 42.8219302 74.3238 60.5952766 74.3238 65.0382991 92.091804 82.8110174"></polygon>
                </g>
            </g>
        </g>
    </g>
</svg>