<?xml version="1.0" encoding="UTF-8"?>
<svg width="157px" height="158px" viewBox="0 0 157 158" version="1.1" xmlns="http://www.w3.org/2000/svg" xmlns:xlink="http://www.w3.org/1999/xlink">
    <title>Gly-3</title>
    <g id="BitcoinComputer-Landingpage" stroke="none" stroke-width="1" fill="none" fill-rule="evenodd">
        <g id="Network–BlueAndOrange-ColorsSlightlyChanged" transform="translate(-1274.000000, -940.000000)">
            <g id="Gly-3" transform="translate(1274.000000, 940.749536)">
                <polygon id="Fill-1" points="0 157.041656 157 157.041656 157 0 0 0"></polygon>
                <g id="Group-26" transform="translate(14.867424, 15.466224)">
                    <path d="M62.7405303,125.514354 C28.0901902,125.514354 0,97.4167104 0,62.7571768 C0,28.0976432 28.0901902,0 62.7405303,0 C97.3908704,0 125.481061,28.0976432 125.481061,62.7571768 C125.481061,97.4167104 97.3908704,125.514354 62.7405303,125.514354 Z" id="Fill-2" fill="#000F38"></path>
                    <polygon id="Fill-4" fill="#FFFFFF" points="53.4467755 80.5131275 53.4467755 45.0013515 49.0091378 40.5625364 13.506154 40.5625364 9.06851625 45.0013515 9.06851625 80.5131275 13.506154 84.9519427 49.0091378 84.9519427"></polygon>
                    <polygon id="Fill-6" fill="#FFFFFF" points="116.412419 80.5131275 116.412419 45.0013515 111.974781 40.5625364 76.4717973 40.5625364 72.0341596 45.0013515 72.0341596 80.5131275 76.4717973 84.9519427 111.974781 84.9519427"></polygon>
                    <path d="M31.2575832,78.4514915 C22.5924885,78.4514915 15.5674313,71.4245705 15.5674313,62.7571768 C15.5674313,54.0897831 22.5924885,47.062862 31.2575832,47.062862 C39.9233052,47.062862 46.947735,54.0897831 46.947735,62.7571768 C46.947735,71.4245705 39.9233052,78.4514915 31.2575832,78.4514915 Z" id="Fill-8" fill="#FFA500"></path>
                    <polygon id="Fill-10" fill="#FFCF00" points="96.4422336 82.7325979 114.193412 64.9767098 114.193412 60.5378947 96.4422336 42.7820067 92.0045959 42.7813791 74.2534176 60.5378947 74.2534176 64.9767098 92.0045959 82.7325979"></polygon>
                    <path d="M31.2577086,68.3249935 C28.1834227,68.3249935 25.6913688,65.8322784 25.6913688,62.7571768 C25.6913688,59.6820751 28.1834227,57.18936 31.2577086,57.18936 C34.3319946,57.18936 36.8240485,59.6820751 36.8240485,62.7571768 C36.8240485,65.8322784 34.3319946,68.3249935 31.2577086,68.3249935 Z" id="Fill-25" fill="#FF4B00"></path>
                </g>
            </g>
        </g>
    </g>
</svg>