<?xml version="1.0" encoding="UTF-8"?>
<svg width="157px" height="157px" viewBox="0 0 157 157" version="1.1" xmlns="http://www.w3.org/2000/svg" xmlns:xlink="http://www.w3.org/1999/xlink">
    <title>Gly-6</title>
    <g id="BitcoinComputer-Landingpage" stroke="none" stroke-width="1" fill="none" fill-rule="evenodd">
        <g id="Network–BlueAndOrange-ColorsSlightlyChanged" transform="translate(-1745.000000, -2669.000000)">
            <g id="Graph-2" transform="translate(960.000000, 2669.000000)">
                <g id="Gly-6" transform="translate(785.000000, 0.000000)">
                    <polygon id="Fill-1" points="0 157 157 157 157 0 0 0"></polygon>
                    <path d="M78.380052,141.628695 C43.696868,141.628695 15.580052,113.511879 15.580052,78.8286952 C15.580052,44.1455112 43.696868,16.0286952 78.380052,16.0286952 C113.063236,16.0286952 141.180052,44.1455112 141.180052,78.8286952 C141.180052,113.511879 113.063236,141.628695 78.380052,141.628695 Z" id="Fill-2" fill="#0046FF"></path>
                    <polygon id="Fill-6" fill="#FFFFFF" points="122.783043 114.351076 122.783043 43.3060636 113.902495 34.4255156 42.8574832 34.4255156 33.9769352 43.3060636 33.9769352 114.351076 42.8574832 123.231624 113.902495 123.231624"></polygon>
                    <path d="M109.892715,78.8286952 C109.892715,96.2324592 95.7840672,110.341107 78.3803032,110.341107 C60.9759112,110.341107 46.8672632,96.2324592 46.8672632,78.8286952 C46.8672632,61.4249312 60.9759112,47.3162832 78.3803032,47.3162832 C95.7840672,47.3162832 109.892715,61.4249312 109.892715,78.8286952" id="Fill-10" fill="#A7BFFF"></path>
                    <polygon id="Fill-14" fill="#002A99" points="58.3645616 95.164608 98.2588896 95.164608 100.578094 91.148548 80.6303016 56.5985 75.9931496 56.5985 56.0459856 91.148548"></polygon>
                </g>
            </g>
        </g>
    </g>
</svg>