<?xml version="1.0" encoding="UTF-8"?>
<svg width="1920px" height="1884px" viewBox="0 0 1920 1884" version="1.1" xmlns="http://www.w3.org/2000/svg" xmlns:xlink="http://www.w3.org/1999/xlink">
    <title>Grid/Grid-Module-6x6</title>
    <g id="Symbols" stroke="none" stroke-width="1" fill="none" fill-rule="evenodd" stroke-linecap="square">
        <g id="Grid/Grid-Module-6x6" stroke="#DFDFDF">
            <g id="V-Grid-line" transform="translate(1273.500000, 0.000000)">
                <line x1="0.5" y1="0" x2="0.5" y2="1883.5"></line>
            </g>
            <g id="V-Grid-line" transform="translate(645.500000, 0.000000)">
                <line x1="0.5" y1="0" x2="0.5" y2="1883.5"></line>
            </g>
            <g id="V-Grid-line" transform="translate(17.500000, 0.000000)">
                <line x1="0.5" y1="0" x2="0.5" y2="1883.5"></line>
            </g>
            <g id="V-Grid-line" transform="translate(1587.500000, 0.000000)">
                <line x1="0.5" y1="0" x2="0.5" y2="1883.5"></line>
            </g>
            <g id="V-Grid-line" transform="translate(959.500000, 0.000000)">
                <line x1="0.5" y1="0" x2="0.5" y2="1883.5"></line>
            </g>
            <g id="V-Grid-line" transform="translate(331.500000, 0.000000)">
                <line x1="0.5" y1="0" x2="0.5" y2="1883.5"></line>
            </g>
            <g id="V-Grid-line" transform="translate(1901.500000, 0.000000)">
                <line x1="0.5" y1="0" x2="0.5" y2="1883.5"></line>
            </g>
            <g id="H-Grid-line" transform="translate(0.000000, 313.500000)">
                <line x1="1920" y1="0.5" x2="0" y2="0.5"></line>
            </g>
            <g id="H-Grid-line" transform="translate(0.000000, 627.500000)">
                <line x1="1920" y1="0.5" x2="0" y2="0.5"></line>
            </g>
            <g id="H-Grid-line" transform="translate(0.000000, 941.500000)">
                <line x1="1920" y1="0.5" x2="0" y2="0.5"></line>
            </g>
            <g id="H-Grid-line" transform="translate(0.000000, 1255.500000)">
                <line x1="1920" y1="0.5" x2="0" y2="0.5"></line>
            </g>
            <g id="H-Grid-line" transform="translate(0.000000, 1569.500000)">
                <line x1="1920" y1="0.5" x2="0" y2="0.5"></line>
            </g>
            <g id="H-Grid-line" transform="translate(0.000000, 1883.000000)">
                <line x1="1920" y1="0.5" x2="0" y2="0.5"></line>
            </g>
        </g>
    </g>
</svg>