<?xml version="1.0" encoding="UTF-8"?>
<svg width="24px" height="24px" viewBox="0 0 24 24" version="1.1" xmlns="http://www.w3.org/2000/svg" xmlns:xlink="http://www.w3.org/1999/xlink">
    <title>social/discord</title>
    <g id="Symbols" stroke="none" stroke-width="1" fill="none" fill-rule="evenodd">
        <g id="social/discord" fill="#FFFFFF">
            <path d="M12,0 C5.374,0 0,5.372 0,12 C0,18.627 5.374,24 12,24 C18.627,24 24,18.627 24,12 C24,5.372 18.627,0 12,0 Z M15.248,18.348 L14.877,17.053 L15.773,17.886 L16.62,18.67 L18.125,20 L18.125,7.442 C18.125,6.644 17.481,6 16.69,6 L7.31,6 C6.519,6 5.875,6.644 5.875,7.442 L5.875,16.906 C5.875,17.704 6.519,18.348 7.31,18.348 L15.248,18.348 L15.248,18.348 Z M13.988,15.142 L13.526,14.575 C14.443,14.316 14.793,13.742 14.793,13.742 C14.506,13.931 14.233,14.064 13.988,14.155 C13.638,14.302 13.302,14.4 12.973,14.456 C12.301,14.582 11.685,14.547 11.16,14.449 C10.761,14.372 10.418,14.26 10.131,14.148 C9.97,14.085 9.795,14.008 9.62,13.91 L9.592,13.894 L9.585,13.891 L9.557,13.875 L9.529,13.854 L9.333,13.735 C9.333,13.735 9.669,14.295 10.558,14.561 L10.089,15.142 C8.542,15.093 7.954,14.078 7.954,14.078 C7.954,11.824 8.962,9.997 8.962,9.997 C9.97,9.241 10.929,9.26194183 10.929,9.26194183 L10.999,9.346 C9.739,9.71 9.158,10.263 9.158,10.263 L9.571,10.06 C10.32,9.731 10.915,9.64 11.16,9.619 L11.279,9.605 C11.706,9.549 12.189,9.535 12.693,9.591 C13.358,9.668 14.072,9.864 14.8,10.263 C14.8,10.263 14.247,9.738 13.057,9.374 L13.155,9.26194183 C13.155,9.26194183 14.114,9.241 15.122,9.997 C15.122,9.997 16.13,11.824 16.13,14.078 C16.13,14.078 15.557,15.055 13.988,15.142 L13.988,15.142 Z M13.288,11.873 C12.889,11.873 12.574,12.223 12.574,12.65 C12.574,13.077 12.896,13.427 13.288,13.427 C13.687,13.427 14.002,13.077 14.002,12.65 C14.002,12.223 13.687,11.873 13.288,11.873 Z M10.733,11.873 C10.334,11.873 10.019,12.223 10.019,12.65 C10.019,13.077 10.341,13.427 10.733,13.427 C11.132,13.427 11.447,13.077 11.447,12.65 C11.454,12.223 11.132,11.873 10.733,11.873 Z" id="Shape"></path>
        </g>
    </g>
</svg>