
<svg width="1921px" height="316px" viewBox="0 0 1921 316" version="1.1" xmlns="http://www.w3.org/2000/svg" xmlns:xlink="http://www.w3.org/1999/xlink">
    <g id="BitcoinComputer-Landingpage" stroke="none" stroke-width="1" fill="none" fill-rule="evenodd">
        <g id="Network–BlueAndOrange" transform="translate(0.000000, -8163.000000)">
            <g id="SOCIAL" transform="translate(0.000000, 8164.000000)">
                <rect id="BG" fill="#0046FF" x="0" y="0" width="1920" height="314"></rect>
                <g id="Group" transform="translate(0.500000, 0.000000)" opacity="0.5" stroke="#DFDFDF" stroke-linecap="square">
                    <g id="Grid/Grid-Module-6x1">
                        <g id="V-Grid-line" transform="translate(1273.500000, 0.000000)">
                            <line x1="0.5" y1="0" x2="0.5" y2="314"></line>
                        </g>
                        <g id="V-Grid-line" transform="translate(645.500000, 0.000000)">
                            <line x1="0.5" y1="0" x2="0.5" y2="314"></line>
                        </g>
                        <g id="V-Grid-line" transform="translate(17.500000, 0.000000)">
                            <line x1="0.5" y1="0" x2="0.5" y2="314"></line>
                        </g>
                        <g id="V-Grid-line" transform="translate(1587.500000, 0.000000)">
                            <line x1="0.5" y1="0" x2="0.5" y2="314"></line>
                        </g>
                        <g id="V-Grid-line" transform="translate(959.500000, 0.000000)">
                            <line x1="0.5" y1="0" x2="0.5" y2="314"></line>
                        </g>
                        <g id="V-Grid-line" transform="translate(331.500000, 0.000000)">
                            <line x1="0.5" y1="0" x2="0.5" y2="314"></line>
                        </g>
                        <g id="V-Grid-line" transform="translate(1901.500000, 0.000000)">
                            <line x1="0.5" y1="0" x2="0.5" y2="314"></line>
                        </g>
                        <g id="H-Grid-line" transform="translate(0.000000, 313.000000)">
                            <line x1="1920" y1="0.5" x2="0" y2="0.5"></line>
                        </g>
                    </g>
                </g>
                <text id="Get-in-touch" font-family="Formular" font-size="24" font-weight="normal" line-spacing="31" fill="#A7BFFF">
                    <tspan x="349" y="124">Get in touch</tspan>
                </text>
                <text id="hello@bitcoincompute" font-family="Formular" font-size="24" font-weight="normal" line-spacing="31" fill="#FFFFFF">
                    <tspan x="349" y="158">hello</tspan>
                    <tspan x="403.456" y="158" font-family="Helvetica">@</tspan>
                    <tspan x="427.819281" y="158">bitcoincomputer.io</tspan>
                </text>
                <text id="Copyright-©-2022-Bit" font-family="Formular" font-size="15" font-weight="normal" line-spacing="31" fill="#A7BFFF">
                    <tspan x="1291" y="155">Copyright </tspan>
                    <tspan x="1366.33" y="155" font-family="Helvetica">© </tspan>
                    <tspan x="1381.54973" y="155">2022 Bitcoin Computer. All rights reserved.</tspan>
                </text>
                <g id="social-Media-Icons" transform="translate(791.000000, 139.000000)" fill="#FFFFFF">
                    <g id="Group" fill-rule="nonzero">
                        <g id="social/github">
                            <path d="M22,0 C9.8505,0 0,9.8505 0,22 C0,34.1495 9.8505,44 22,44 C34.1495,44 44,34.1495 44,22 C44,9.8505 34.1495,0 22,0 Z M33.121,17.6825 C33.4565,25.0891667 27.9326667,33.3465 18.1536667,33.3465 C15.18,33.3465 12.4135,32.4738333 10.0833333,30.9796667 C12.8773333,31.3096667 15.6658333,30.5323333 17.8786667,28.7998333 C15.576,28.7576667 13.6308333,27.2341667 12.958,25.1423333 C13.7848333,25.3 14.5988333,25.2541667 15.3376667,25.0525 C12.8058333,24.5428333 11.0568333,22.2621667 11.1136667,19.822 C11.825,20.2161667 12.6353333,20.4526667 13.4988333,20.4801667 C11.154,18.9126667 10.4903333,15.8161667 11.869,13.4493333 C14.465,16.6356667 18.3461667,18.7311667 22.7223333,18.9511667 C21.9541667,15.6585 24.453,12.485 27.8538333,12.485 C29.3663333,12.485 30.7358333,13.1248333 31.6965,14.1478333 C32.8955,13.9131667 34.0248333,13.4731667 35.0405,12.87 C34.6463333,14.1001667 33.8121667,15.1305 32.725,15.7831667 C33.7901667,15.6548333 34.8058333,15.3725 35.7481667,14.9526667 C35.0441667,16.0123333 34.1531667,16.94 33.121,17.6825 L33.121,17.6825 Z" id="Shape"></path>
                        </g>
                    </g>
                    <g id="social/github-copy" transform="translate(73.000000, 0.000000)">
                        <path d="M22,0 C9.85233333,0 0,9.84866667 0,22 C0,34.1495 9.85233333,44 22,44 C34.1495,44 44,34.1495 44,22 C44,9.84866667 34.1495,0 22,0 Z M29.095,32.9193333 C29.4891667,32.769 29.7806667,32.4298333 29.8686667,32.0191667 C30.7981667,27.6521667 33.0531667,16.5971667 33.8983333,12.6261667 C33.9625,12.3255 33.8561667,12.0138333 33.6215,11.814 C33.385,11.6141667 33.0586667,11.5573333 32.769,11.6636667 C28.2846667,13.3246667 14.4741667,18.5056667 8.82933333,20.5938333 C8.47183333,20.7276667 8.239,21.0705 8.25,21.45 C8.26283333,21.8276667 8.51766667,22.1558333 8.88433333,22.2658333 C11.4161667,23.023 14.7381667,24.0771667 14.7381667,24.0771667 C14.7381667,24.0771667 16.291,28.7668333 17.0995,31.1501667 C17.2021667,31.4508333 17.4368333,31.6855 17.7448333,31.7661667 C18.0546667,31.8468333 18.3828333,31.7625 18.6138333,31.5443333 C19.9136667,30.3178333 21.923,28.4203333 21.923,28.4203333 C21.923,28.4203333 25.7436667,31.2198333 27.9106667,32.7635 C28.2553333,33.0073333 28.699,33.0678333 29.095,32.9193333 Z M17.9318333,29.4066667 L18.3315,25.6556667 C18.3315,25.6556667 25.267,19.3985 29.2233333,15.8326667 C29.3388333,15.7281667 29.3535,15.5521667 29.2581667,15.4293333 C29.1628333,15.3065 28.9868333,15.2771667 28.8566667,15.3615 C24.2733333,18.2875 16.1351667,23.4831667 16.1351667,23.4831667 L17.9318333,29.4066667 Z" id="telegram-4"></path>
                    </g>
                    <g id="Group" transform="translate(147.000000, 0.000000)" fill-rule="nonzero">
                        <g id="social/github-copy-2">
                            <path d="M22,0 C9.8505,0 0,9.8505 0,22 C0,34.1495 9.8505,44 22,44 C34.1495,44 44,34.1495 44,22 C44,9.8505 34.1495,0 22,0 Z M30.1418333,30.9686667 C26.2881667,31.2326667 17.7045,31.2326667 13.8563333,30.9686667 C9.68366667,30.6826667 9.19783333,28.6403333 9.16666667,22 C9.19783333,15.3468333 9.68916667,13.3173333 13.8563333,13.0313333 C17.7045,12.7673333 26.29,12.7673333 30.1418333,13.0313333 C34.3163333,13.3173333 34.8003333,15.3596667 34.8333333,22 C34.8003333,28.6531667 34.3108333,30.6826667 30.1418333,30.9686667 Z M18.3333333,17.7063333 L27.3478333,21.9926667 L18.3333333,26.2936667 L18.3333333,17.7063333 L18.3333333,17.7063333 Z" id="Shape"></path>
                        </g>
                    </g>
                    <g id="social/github-copy-3" transform="translate(220.000000, 0.000000)">
                        <path d="M22,0 C9.85233333,0 0,9.84866667 0,22 C0,34.1495 9.85233333,44 22,44 C34.1495,44 44,34.1495 44,22 C44,9.84866667 34.1495,0 22,0 Z M27.9546667,33.638 L27.2745,31.2638333 L28.9171667,32.791 L30.47,34.2283333 L33.2291667,36.6666667 L33.2291667,13.6436667 C33.2291667,12.1806667 32.0485,11 30.5983333,11 L13.4016667,11 C11.9515,11 10.7708333,12.1806667 10.7708333,13.6436667 L10.7708333,30.9943333 C10.7708333,32.4573333 11.9515,33.638 13.4016667,33.638 L27.9546667,33.638 L27.9546667,33.638 Z M25.6446667,27.7603333 L24.7976667,26.7208333 C26.4788333,26.246 27.1205,25.1936667 27.1205,25.1936667 C26.5943333,25.5401667 26.0938333,25.784 25.6446667,25.9508333 C25.003,26.2203333 24.387,26.4 23.7838333,26.5026667 C22.5518333,26.7336667 21.4225,26.6695 20.46,26.4898333 C19.7285,26.3486667 19.0996667,26.1433333 18.5735,25.938 C18.2783333,25.8225 17.9575,25.6813333 17.6366667,25.5016667 L17.5853333,25.4723333 L17.5725,25.4668333 L17.5211667,25.4375 L17.4698333,25.399 L17.1105,25.1808333 C17.1105,25.1808333 17.7265,26.2075 19.3563333,26.6951667 L18.4965,27.7603333 C15.6603333,27.6705 14.5823333,25.8096667 14.5823333,25.8096667 C14.5823333,21.6773333 16.4303333,18.3278333 16.4303333,18.3278333 C18.2783333,16.9418333 20.0365,16.9802267 20.0365,16.9802267 L20.1648333,17.1343333 C17.8548333,17.8016667 16.7896667,18.8155 16.7896667,18.8155 L17.5468333,18.4433333 C18.92,17.8401667 20.0108333,17.6733333 20.46,17.6348333 L20.6781667,17.6091667 C21.461,17.5065 22.3465,17.4808333 23.2705,17.5835 C24.4896667,17.7246667 25.7986667,18.084 27.1333333,18.8155 C27.1333333,18.8155 26.1195,17.853 23.9378333,17.1856667 L24.1175,16.9802267 C24.1175,16.9802267 25.8756667,16.9418333 27.7236667,18.3278333 C27.7236667,18.3278333 29.5716667,21.6773333 29.5716667,25.8096667 C29.5716667,25.8096667 28.5211667,27.6008333 25.6446667,27.7603333 L25.6446667,27.7603333 Z M24.3613333,21.7671667 C23.6298333,21.7671667 23.0523333,22.4088333 23.0523333,23.1916667 C23.0523333,23.9745 23.6426667,24.6161667 24.3613333,24.6161667 C25.0928333,24.6161667 25.6703333,23.9745 25.6703333,23.1916667 C25.6703333,22.4088333 25.0928333,21.7671667 24.3613333,21.7671667 Z M19.6771667,21.7671667 C18.9456667,21.7671667 18.3681667,22.4088333 18.3681667,23.1916667 C18.3681667,23.9745 18.9585,24.6161667 19.6771667,24.6161667 C20.4086667,24.6161667 20.9861667,23.9745 20.9861667,23.1916667 C20.999,22.4088333 20.4086667,21.7671667 19.6771667,21.7671667 Z" id="Shape"></path>
                    </g>
                    <g id="Group" transform="translate(293.000000, 0.000000)" fill-rule="nonzero">
                        <g id="social/github-copy-4">
                            <path d="M22,0 C9.8505,0 0,9.8505 0,22 C0,34.1495 9.8505,44 22,44 C34.1495,44 44,34.1495 44,22 C44,9.8505 34.1495,0 22,0 Z M26.0663333,34.1293333 C25.4173333,34.2558333 25.2083333,33.8561667 25.2083333,33.5133333 L25.2083333,29.9915 C25.2083333,28.7943333 24.7885,28.0133333 24.3265,27.6155 C27.1865,27.2983333 30.1895,26.213 30.1895,21.2831667 C30.1895,19.8806667 29.689,18.7366667 28.8676667,17.8383333 C28.9996667,17.5138333 29.4396667,16.2085 28.7411667,14.4411667 C28.7411667,14.4411667 27.665,14.0965 25.2156667,15.7556667 C24.1871667,15.4733333 23.0908333,15.3321667 22,15.3266667 C20.9091667,15.3321667 19.8128333,15.4733333 18.7861667,15.7575 C16.335,14.0983333 15.257,14.443 15.257,14.443 C14.5621667,16.2103333 15.0003333,17.5156667 15.1341667,17.8383333 C14.3128333,18.7366667 13.8105,19.8806667 13.8105,21.2831667 C13.8105,26.2001667 16.8061667,27.3001667 19.657,27.6246667 C19.2903333,27.9455 18.9585,28.5101667 18.843,29.3406667 C18.1096667,29.6688333 16.2525,30.2353333 15.1085,28.2736667 C15.1085,28.2736667 14.4301667,27.0416667 13.1413333,26.95 C13.1413333,26.95 11.8891667,26.9335 13.0533333,27.731 C13.0533333,27.731 13.8966667,28.1251667 14.4778333,29.6083333 C14.4778333,29.6083333 15.2203333,31.9 18.7916667,31.1226667 L18.7916667,33.5115 C18.7916667,33.8506667 18.5845,34.2485 17.9446667,34.1293333 C12.8443333,32.4335 9.16666667,27.6228333 9.16666667,21.9541667 C9.16666667,14.8646667 14.9141667,9.12083333 22,9.12083333 C29.0858333,9.12083333 34.8333333,14.8646667 34.8333333,21.9541667 C34.8333333,27.621 31.1611667,32.4316667 26.0663333,34.1293333 L26.0663333,34.1293333 Z" id="Shape"></path>
                        </g>
                    </g>
                </g>
            </g>
        </g>
    </g>
</svg>