
<svg width="1920px" height="138px" viewBox="0 0 1920 138" version="1.1" xmlns="http://www.w3.org/2000/svg" xmlns:xlink="http://www.w3.org/1999/xlink">
    <g id="BitcoinComputer-Landingpage" stroke="none" stroke-width="1" fill="none" fill-rule="evenodd">
        <g id="Group">
            <text id="Features-Copy" font-family="Formular" font-size="18" font-weight="normal" fill="#000000">
                <tspan x="1317" y="72">Features</tspan>
            </text>
            <rect id="Rectangle" fill="#FFFFFF" x="0" y="0" width="1921" height="136"></rect>
            <line x1="0" y1="136.834921" x2="1920.5" y2="136.834921" id="Line-Copy" stroke="#D5D5D5" stroke-linecap="square"></line>
            <text id="Pricing-Copy" font-family="Formular" font-size="18" font-weight="normal" fill="#000000">
                <tspan x="1442" y="72">Pricing</tspan>
            </text>
            <text id="Examples" font-family="Formular" font-size="18" font-weight="normal" fill="#000000">
                <tspan x="1561" y="72">Examples</tspan>
            </text>
            <text id="Features" font-family="Formular" font-size="18" font-weight="normal" fill="#000000">
                <tspan x="1306" y="72">Features</tspan>
            </text>
            <g transform="translate(1703.000000, 55.000000)" font-weight="normal">
                <text id="Docs-Copy" font-family="Formular" font-size="18" fill="#000000">
                    <tspan x="0" y="17">Docs</tspan>
                </text>
                <text id="↗" font-family="NeueMontreal-Regular, Neue Montreal" font-size="19" fill="#000F38">
                    <tspan x="47" y="19">↗</tspan>
                </text>
            </g>
            <text id="About-Copy" font-family="Formular" font-size="18" font-weight="normal" fill="#000000">
                <tspan x="1820" y="72">About</tspan>
            </text>
            <g transform="translate(36.000000, 36.000000)" fill="#0046FF" fill-rule="nonzero" id="BitcoinComputer-Logo">
                <g>
                    <g id="Group" transform="translate(52.113325, 0.066423)">
                        <path d="M21.805612,15.0020333 C22.2515928,15.3910804 22.6501288,15.8465501 22.9822421,16.3684425 C23.3143554,16.8998238 23.5800461,17.4691609 23.7698251,18.0859428 C23.9596042,18.7027247 24.0544937,19.3574624 24.0544937,20.0501559 C24.0544937,21.2078081 23.8647147,22.2705707 23.4946455,23.2289549 C23.1245764,24.196828 22.5457503,25.0318558 21.7581673,25.7530161 C20.9705842,26.4741765 19.9837332,27.0340247 18.7881253,27.4325607 C17.5925173,27.8310967 16.1881524,28.0303646 14.5655415,28.0303646 L1.29998644,28.0303646 L1.29998644,0.502914464 L14.2239393,0.502914464 C15.7421716,0.502914464 17.061136,0.692693507 18.1998102,1.08174054 C19.3289955,1.47078758 20.2778907,1.99267995 21.0370069,2.66639555 C21.7961231,3.3306222 22.3654602,4.10871628 22.7355293,5.00067778 C23.1055985,5.89263928 23.2953775,6.82255659 23.2953775,7.79991867 C23.2953775,9.0619493 23.0391758,10.1911346 22.5267724,11.1969635 C22.014369,12.2027925 21.3026976,12.9239528 20.4012471,13.3604446 L20.4012471,14.1290497 C20.8946726,14.3378067 21.3596313,14.6319642 21.805612,15.0210113 L21.805612,15.0020333 Z M17.3932493,8.33129999 C17.3932493,6.30066423 16.0932628,5.28534635 13.49329,5.28534635 L7.05029145,5.28534635 L7.05029145,11.4152094 L13.5312458,11.4152094 C16.1027518,11.4152094 17.3837603,10.3904026 17.3837603,8.33129999 L17.3932493,8.33129999 Z M17.0231802,22.3180155 C17.7822963,21.7676562 18.1618544,20.9136505 18.1618544,19.7559984 C18.1618544,17.4122272 16.7100447,16.2450861 13.8064254,16.2450861 L7.0597804,16.2450861 L7.0597804,23.1530432 L13.7305138,23.1530432 C15.1728345,23.1530432 16.2735529,22.8778636 17.0326691,22.3275044 L17.0231802,22.3180155 Z" id="Shape"></path>
                        <path d="M27.8785414,0 L33.4295784,0 L33.4295784,4.89629931 L27.8785414,4.89629931 L27.8785414,0 Z M27.954453,28.0398536 L27.954453,8.21743256 L33.3536668,8.21743256 L33.3536668,28.0398536 L27.954453,28.0398536 Z" id="Shape"></path>
                        <path d="M50.0921784,12.7246848 L45.1199675,12.7246848 L45.1199675,21.2837197 C45.1199675,21.9479463 45.3097465,22.4793276 45.6798156,22.8683747 C46.0498848,23.2574217 46.7046225,23.4472008 47.6250508,23.4472008 L50.0921784,23.4472008 L50.0921784,28.0398536 L47.3498712,28.0398536 C46.2206859,28.0398536 45.1863901,27.963942 44.2469839,27.8121187 C43.3075776,27.6602955 42.5010167,27.366138 41.83679,26.9486241 C41.1630744,26.5216213 40.650671,25.9238173 40.2711129,25.1552121 C39.8915548,24.386607 39.7112647,23.3807781 39.7112647,22.1472143 L39.7112647,12.7341738 L36.2003524,12.7341738 L36.2003524,8.21743256 L39.7112647,8.21743256 L39.7112647,2.66639555 L45.1104785,2.66639555 L45.1104785,8.21743256 L50.0826894,8.21743256 L50.0826894,12.7341738 L50.0921784,12.7246848 Z" id="Path"></path>
                        <path d="M70.8445167,24.3012065 C70.3605802,25.1741901 69.7153314,25.9238173 68.9182595,26.5595771 C68.1211875,27.1858479 67.1912702,27.6792734 66.1379965,28.0208757 C65.0847228,28.3719669 63.9365596,28.5427681 62.7029958,28.5427681 C61.1562966,28.5427681 59.7803985,28.2960553 58.5563237,27.7931408 C57.3322489,27.2902264 56.2884641,26.5880439 55.4154805,25.6865935 C54.5424969,24.785143 53.8687813,23.6939135 53.4133116,22.403416 C52.948353,21.1129185 52.7206181,19.6895757 52.7206181,18.1238986 C52.7206181,16.5582215 52.948353,15.1348787 53.4133116,13.8633591 C53.8782703,12.5918395 54.5424969,11.50061 55.4154805,10.5801816 C56.2884641,9.66924224 57.3417378,8.95757083 58.5563237,8.45465636 C59.7803985,7.9517419 61.1562966,7.70502914 62.7029958,7.70502914 C63.9365596,7.70502914 65.0752338,7.87583028 66.1190186,8.20794361 C67.1628033,8.54005693 68.0642538,9.00501559 68.8423478,9.59333062 C69.610953,10.1816457 70.2372238,10.902806 70.7116714,11.7568117 C71.186119,12.6013285 71.4897655,13.5312458 71.6226108,14.5370747 L66.2613529,14.5370747 C66.0525959,13.7874475 65.6635489,13.2181103 65.0847228,12.8195744 C64.5058967,12.4210384 63.7278026,12.2217704 62.7504406,12.2217704 C61.9059238,12.2217704 61.1847635,12.3735936 60.6059374,12.686729 C60.0271113,12.9998644 59.5526637,13.4173783 59.1825946,13.9582486 C58.8125254,14.4991189 58.5373458,15.1253897 58.3760336,15.8275722 C58.2052325,16.5392436 58.1293209,17.2888708 58.1293209,18.0859428 C58.1293209,18.8830148 58.2147214,19.6800868 58.3760336,20.4012471 C58.5468348,21.1224075 58.8125254,21.7486783 59.1825946,22.2895486 C59.5526637,22.8304189 60.0366002,23.2574217 60.6249153,23.5800461 C61.2132303,23.9026705 61.9249017,24.0639826 62.7504406,24.0639826 C63.8321811,24.0639826 64.6766978,23.8267588 65.2934797,23.3523112 C65.9102616,22.8778636 66.2993087,22.213637 66.4511319,21.3691202 L71.7744341,21.3691202 C71.6415887,22.4508608 71.3379423,23.4282229 70.8445167,24.3012065 L70.8445167,24.3012065 Z" id="Path"></path>
                        <path d="M88.7501694,8.46414532 C90.021689,8.96705978 91.1034296,9.66924224 91.9859021,10.5896706 C92.8778636,11.50061 93.5515792,12.6013285 94.0355158,13.8918259 C94.5099634,15.1728345 94.7471872,16.5961773 94.7471872,18.1333876 C94.7471872,19.6705978 94.5099634,21.0939406 94.0355158,22.3749492 C93.5610682,23.6559577 92.8778636,24.7566762 91.9859021,25.6771045 C91.1034296,26.5880439 90.021689,27.2997153 88.7501694,27.8026298 C87.4786499,28.3055443 86.055307,28.552257 84.4896299,28.552257 C82.9239528,28.552257 81.510099,28.3055443 80.2480683,27.8026298 C78.9860377,27.2997153 77.9137861,26.5975329 77.0313135,25.6771045 C76.148841,24.7566762 75.4561475,23.6654467 74.9722109,22.3749492 C74.4882744,21.0844517 74.2415616,19.6705978 74.2415616,18.1333876 C74.2415616,16.5961773 74.4882744,15.1728345 74.9722109,13.8918259 C75.4561475,12.6108174 76.148841,11.510099 77.0313135,10.5896706 C77.9137861,9.67873119 78.9955266,8.96705978 80.2480683,8.46414532 C81.510099,7.96123085 82.9239528,7.7145181 84.4896299,7.7145181 C86.055307,7.7145181 87.4786499,7.96123085 88.7501694,8.46414532 L88.7501694,8.46414532 Z M86.6910668,23.5800461 C87.3078487,23.2574217 87.8107632,22.8304189 88.1903213,22.2895486 C88.5793683,21.7486783 88.8640369,21.1224075 89.0633049,20.4012471 C89.2625729,19.6800868 89.3479734,18.9209706 89.3479734,18.1238986 C89.3479734,17.3268266 89.2530839,16.5771994 89.0633049,15.865528 C88.8735258,15.1538566 88.5793683,14.5370747 88.1903213,13.9962044 C87.8012742,13.4553341 87.3078487,13.0283313 86.6910668,12.7057069 C86.0742849,12.3830826 85.3436356,12.2217704 84.4896299,12.2217704 C83.6356242,12.2217704 82.9144639,12.3830826 82.3071709,12.7057069 C81.699878,13.0283313 81.1969635,13.4553341 80.7984275,13.9962044 C80.3998916,14.5370747 80.105734,15.1633455 79.915955,15.865528 C79.726176,16.5771994 79.6312864,17.3268266 79.6312864,18.1238986 C79.6312864,18.9209706 79.726176,19.6800868 79.915955,20.4012471 C80.105734,21.1224075 80.3998916,21.7486783 80.7984275,22.2895486 C81.1969635,22.8304189 81.699878,23.2574217 82.3071709,23.5800461 C82.9144639,23.9026705 83.6356242,24.0639826 84.4896299,24.0639826 C85.3436356,24.0639826 86.0742849,23.9026705 86.6910668,23.5800461 Z" id="Shape"></path>
                        <path d="M98.3340111,0 L103.885048,0 L103.885048,4.89629931 L98.3340111,4.89629931 L98.3340111,0 Z M98.4099227,28.0398536 L98.4099227,8.21743256 L103.809137,8.21743256 L103.809137,28.0398536 L98.4099227,28.0398536 Z" id="Shape"></path>
                        <path d="M123.346889,8.31232208 C124.314762,8.71085807 125.111834,9.2801952 125.738105,10.0108445 C126.364376,10.7414938 126.848312,11.6144774 127.161448,12.6297953 C127.484072,13.6451132 127.645384,14.7742985 127.645384,16.0078623 L127.645384,28.0398536 L122.246171,28.0398536 L122.246171,16.7764674 C122.246171,15.3910804 121.914057,14.3283177 121.240342,13.5976684 C120.576115,12.8670191 119.608242,12.49695 118.346211,12.49695 C117.681985,12.49695 117.074692,12.6297953 116.533821,12.9049749 C115.992951,13.1706656 115.537481,13.5312458 115.167412,13.9867155 C114.797343,14.4326962 114.503186,14.9640775 114.303918,15.5713705 C114.095161,16.1786634 113.990782,16.8144232 113.990782,17.4786499 L113.990782,28.0493426 L108.591568,28.0493426 L108.591568,8.21743256 L113.838959,8.21743256 L113.838959,10.0677782 L114.607564,10.0677782 C115.044056,9.39406263 115.717771,8.8437034 116.628711,8.3882337 C117.53965,7.932764 118.649858,7.7145181 119.968822,7.7145181 C121.287786,7.7145181 122.379016,7.91378609 123.346889,8.31232208 Z" id="Path"></path>
                        <path d="M23.4472008,57.1899146 C22.8304189,58.3380778 22.0238579,59.3154399 21.0370069,60.1409787 C20.0501559,60.9665176 18.8925037,61.6022773 17.5830283,62.0482581 C16.2735529,62.4942389 14.8027654,62.7219737 13.1896435,62.7219737 C11.0830961,62.7219737 9.21377254,62.3708825 7.58167277,61.678189 C5.949573,60.9854955 4.57367494,60.0081334 3.45397858,58.7461028 C2.33428223,57.4840721 1.48027654,55.9848177 0.891961502,54.2293615 C0.303646469,52.4739054 1.3484612e-14,50.5476481 1.3484612e-14,48.4411007 C1.3484612e-14,46.3345533 0.294157517,44.4082961 0.891961502,42.6528399 C1.48976549,40.8973838 2.33428223,39.3981293 3.45397858,38.1360987 C4.57367494,36.874068 5.95906195,35.896706 7.60065067,35.2040125 C9.24223939,34.511319 11.111563,34.1602277 13.1896435,34.1602277 C14.7363427,34.1602277 16.1312187,34.3689847 17.3932493,34.7770096 C18.6552799,35.1850346 19.7654873,35.7733496 20.7333604,36.5324658 C21.7012336,37.2915819 22.4983055,38.1930324 23.1245764,39.2273282 C23.7508472,40.2711129 24.187339,41.4192761 24.4150739,42.6813068 L18.3990782,42.6813068 C17.7253626,40.4229362 15.9983733,39.2842619 13.1896435,39.2842619 C11.9560797,39.2842619 10.8838281,39.5214857 9.97288871,39.9959333 C9.0619493,40.4703809 8.30283313,41.1251186 7.69554019,41.9411685 C7.08824725,42.7667073 6.6422665,43.7250915 6.34810899,44.8352989 C6.05395147,45.9455063 5.90212824,47.1316253 5.90212824,48.4221228 C5.90212824,49.7126203 6.05395147,50.9082283 6.34810899,52.0089467 C6.6422665,53.1096652 7.09773621,54.0775383 7.69554019,54.9030771 C8.30283313,55.728616 9.0619493,56.3738647 9.97288871,56.8483123 C10.8838281,57.3227599 11.9560797,57.5599837 13.1896435,57.5599837 C14.679409,57.5599837 15.9034838,57.1899146 16.852379,56.4592653 C17.8012742,55.728616 18.4180561,54.7038091 18.7027247,53.3943337 L24.6807645,53.3943337 C24.4720076,54.7607428 24.0639826,56.0132845 23.4472008,57.1519588 L23.4472008,57.1899146 Z" id="Path"></path>
                        <path d="M41.8178121,42.643351 C43.0893317,43.1462654 44.1710723,43.8484479 45.0535448,44.7688762 C45.9360174,45.6893046 46.6192219,46.7805341 47.0936695,48.0710316 C47.5681171,49.3520401 47.8053409,50.765894 47.8053409,52.3125932 C47.8053409,53.8592924 47.5681171,55.2731463 47.0936695,56.5541548 C46.6192219,57.8446523 45.9360174,58.9358818 45.0535448,59.8563102 C44.1710723,60.7767385 43.0893317,61.478921 41.8178121,61.9818354 C40.5462925,62.4847499 39.1229497,62.7314627 37.5572726,62.7314627 C35.9915955,62.7314627 34.5777416,62.4847499 33.315711,61.9818354 C32.0536804,61.478921 30.9814288,60.7767385 30.0989562,59.8563102 C29.2164837,58.9358818 28.5237902,57.8446523 28.0398536,56.5541548 C27.5464281,55.2731463 27.3092043,53.8498034 27.3092043,52.3125932 C27.3092043,50.7753829 27.555917,49.3520401 28.0398536,48.0710316 C28.5332791,46.7805341 29.2164837,45.6893046 30.0989562,44.7688762 C30.9814288,43.8484479 32.0631693,43.1462654 33.315711,42.643351 C34.5777416,42.1404365 35.9915955,41.8937237 37.5572726,41.8937237 C39.1229497,41.8937237 40.5462925,42.1404365 41.8178121,42.643351 L41.8178121,42.643351 Z M39.7587095,57.7592517 C40.3754914,57.4366274 40.8784059,57.0096245 41.2674529,56.4687542 C41.6564999,55.927884 41.9411685,55.3016131 42.1309475,54.5804528 C42.3207266,53.8592924 42.4156161,53.1001762 42.4156161,52.3031042 C42.4156161,51.5060323 42.3207266,50.756405 42.1309475,50.0447336 C41.9411685,49.3330622 41.647011,48.7162803 41.2674529,48.1754101 C40.8784059,47.6345398 40.3754914,47.2075369 39.7587095,46.8849126 C39.1419276,46.5622882 38.4112783,46.400976 37.5572726,46.400976 C36.7032669,46.400976 35.9821065,46.5622882 35.3748136,46.8849126 C34.7675207,47.2075369 34.2646062,47.6345398 33.8660702,48.1754101 C33.4675342,48.7162803 33.1733767,49.3425512 32.9835977,50.0447336 C32.7938186,50.756405 32.6894402,51.5060323 32.6894402,52.3031042 C32.6894402,53.1001762 32.7843297,53.8592924 32.9835977,54.5804528 C33.1733767,55.3016131 33.4675342,55.927884 33.8660702,56.4687542 C34.2646062,57.0096245 34.7675207,57.4366274 35.3748136,57.7592517 C35.9821065,58.0818761 36.7032669,58.2431883 37.5572726,58.2431883 C38.4112783,58.2431883 39.1419276,58.0818761 39.7587095,57.7592517 Z" id="Shape"></path>
                        <path d="M77.0692694,42.4725498 C77.9517419,42.8615969 78.6918802,43.4024671 79.2707062,44.1141385 C79.8495323,44.8258099 80.2765352,45.6703267 80.5422258,46.6571777 C80.8079165,47.6440287 80.9502508,48.7447472 80.9502508,49.9593331 L80.9502508,62.2285482 L75.551037,62.2285482 L75.551037,50.7374271 C75.551037,49.4469296 75.3233022,48.4505897 74.8773214,47.7484072 C74.4313407,47.0462248 73.6627355,46.6856446 72.580995,46.6856446 C71.3474312,46.6856446 70.4270028,47.1031585 69.8197099,47.9381863 C69.212417,48.773214 68.9087705,49.8264877 68.9087705,51.0790294 L68.9087705,62.2285482 L63.5095567,62.2285482 L63.5095567,50.7753829 C63.5095567,49.4659076 63.2818219,48.4505897 62.8168632,47.7484072 C62.3519046,47.0462248 61.5832994,46.6856446 60.5015589,46.6856446 C59.884777,46.6856446 59.3439067,46.8184899 58.8789481,47.0746916 C58.4139894,47.3308933 58.0344313,47.6819845 57.7212959,48.1374542 C57.4081605,48.592924 57.1899146,49.1053274 57.0475803,49.7031314 C56.905246,50.2914464 56.8388234,50.9272062 56.8388234,51.5914328 L56.8388234,62.2380371 L51.4396096,62.2380371 L51.4396096,42.4156161 L56.6870001,42.4156161 L56.6870001,44.2659618 L57.4556053,44.2659618 C57.9490308,43.5163346 58.6227464,42.9375085 59.49573,42.5294835 C60.3687136,42.1214586 61.3840314,41.9127016 62.5416836,41.9127016 C64.8569879,41.9127016 66.5649993,42.7097736 67.6752067,44.3039176 L68.4438118,44.3039176 C69.601464,42.7097736 71.4043649,41.9127016 73.8430256,41.9127016 C75.1050563,41.9127016 76.1773078,42.1024807 77.0597804,42.4915277 L77.0692694,42.4725498 Z" id="Path"></path>
                        <path d="M93.589535,62.067236 C92.7639962,61.6307442 92.0997696,61.0614071 91.5873661,60.3687136 L90.818761,60.3687136 L90.818761,69.9335773 L85.4195472,69.9335773 L85.4195472,42.3966382 L90.6669378,42.3966382 L90.6669378,44.2469839 L91.4355429,44.2469839 C91.9764132,43.5732683 92.6596177,43.022909 93.4946455,42.5674393 C94.3296733,42.1119696 95.4398807,41.8937237 96.8347567,41.8937237 C98.2296326,41.8937237 99.4157517,42.1594144 100.497492,42.6813068 C101.579233,43.2126881 102.499661,43.9338484 103.258777,44.8637658 C104.017893,45.7936831 104.59672,46.8849126 104.995256,48.1659211 C105.393792,49.4374407 105.59306,50.8228277 105.59306,52.3125932 C105.59306,53.8023587 105.384303,55.2257015 104.976278,56.4972211 C104.568253,57.7687407 103.989427,58.8694591 103.239799,59.7993764 C102.490172,60.7292938 101.579233,61.4409652 100.478514,61.9628575 C99.3872848,62.4752609 98.1726989,62.7314627 96.8347567,62.7314627 C95.4968144,62.7314627 94.4150739,62.5132168 93.599024,62.076725 L93.589535,62.067236 Z M93.2574217,46.8469568 C92.6501288,47.1695811 92.1567033,47.6060729 91.7676562,48.1564322 C91.3786092,48.7067914 91.0939406,49.3425512 90.9041616,50.0637115 C90.7143825,50.7848719 90.619493,51.5250102 90.619493,52.3031042 C90.619493,53.0811983 90.7143825,53.8213366 90.9041616,54.5424969 C91.0939406,55.2636573 91.3880981,55.8899282 91.7676562,56.4307984 C92.1567033,56.9716687 92.6501288,57.3986715 93.2574217,57.7212959 C93.8647147,58.0439203 94.585875,58.2052325 95.4398807,58.2052325 C96.2369527,58.2052325 96.9391351,58.0534092 97.5369391,57.7402738 C98.1442321,57.4271384 98.6376576,57.0096245 99.0267046,56.4877321 C99.4157517,55.9658398 99.7004202,55.3395689 99.8901993,54.6184086 C100.079978,53.8972482 100.184357,53.1286431 100.184357,52.3031042 C100.184357,51.4775654 100.089467,50.7089603 99.8901993,49.9877999 C99.7004202,49.2666396 99.4062627,48.6403687 99.0267046,48.0994984 C98.6471465,47.5586282 98.1442321,47.1316253 97.5369391,46.8279789 C96.9296462,46.5243324 96.2274637,46.3630202 95.4398807,46.3630202 C94.595364,46.3630202 93.8647147,46.5243324 93.2574217,46.8469568 L93.2574217,46.8469568 Z" id="Shape"></path>
                        <path d="M113.184221,62.1241697 C112.235326,61.7256337 111.438254,61.1562966 110.811983,60.4256473 C110.185712,59.694998 109.711265,58.8220144 109.407618,57.8066965 C109.103972,56.7913786 108.94266,55.6621933 108.94266,54.4286295 L108.94266,42.3966382 L114.341873,42.3966382 L114.341873,53.6600244 C114.341873,55.0454114 114.664498,56.1081741 115.309747,56.8388234 C115.954995,57.5694727 116.90389,57.9395418 118.165921,57.9395418 C118.839637,57.9395418 119.437441,57.8066965 119.978311,57.5315169 C120.519181,57.2563373 120.974651,56.905246 121.34472,56.4497763 C121.714789,56.0037956 121.999458,55.4724143 122.189237,54.8651213 C122.379016,54.2578284 122.473905,53.6220686 122.473905,52.9578419 L122.473905,42.3871492 L127.873119,42.3871492 L127.873119,62.2095703 L122.625729,62.2095703 L122.625729,60.3592246 L121.857123,60.3592246 C121.420632,61.0329402 120.746916,61.5832994 119.854955,62.0387691 C118.953504,62.4847499 117.852786,62.7124847 116.533821,62.7124847 C115.214857,62.7124847 114.133116,62.5132168 113.174732,62.1146808 L113.184221,62.1241697 Z" id="Path"></path>
                        <path d="M144.573675,46.9133794 L139.601464,46.9133794 L139.601464,55.4724143 C139.601464,56.1366409 139.791243,56.6680222 140.161312,57.0570693 C140.531381,57.4461163 141.186119,57.6358954 142.106547,57.6358954 L144.573675,57.6358954 L144.573675,62.2285482 L141.831368,62.2285482 C140.702182,62.2285482 139.667887,62.1526366 138.72848,62.0008133 C137.789074,61.8489901 136.982513,61.5548326 136.318287,61.1373187 C135.65406,60.7103158 135.132168,60.1125119 134.752609,59.3439067 C134.38254,58.5753016 134.192761,57.5694727 134.192761,56.3359089 L134.192761,46.9228684 L130.681849,46.9228684 L130.681849,42.4061272 L134.192761,42.4061272 L134.192761,36.8550901 L139.591975,36.8550901 L139.591975,42.4061272 L144.564186,42.4061272 L144.564186,46.9228684 L144.573675,46.9133794 Z" id="Path"></path>
                        <path d="M152.553884,52.9293751 C152.629795,54.6278975 153.066287,55.9373729 153.863359,56.8672902 C154.660431,57.7972075 155.827572,58.2526772 157.374271,58.2526772 C158.399078,58.2526772 159.215128,58.0723871 159.803443,57.711807 C160.391758,57.3512268 160.818761,56.8388234 161.074963,56.1651078 L166.550088,56.1651078 C166.142063,58.1482988 165.164701,59.7329538 163.63698,60.9285617 C162.109259,62.1241697 159.993222,62.7219737 157.288871,62.7219737 C155.723194,62.7219737 154.30934,62.4752609 153.066287,61.9723465 C151.823234,61.469432 150.760472,60.7672496 149.887488,59.8468212 C149.014505,58.9358818 148.340789,57.8351633 147.885319,56.5446659 C147.420361,55.2636573 147.192626,53.8213366 147.192626,52.2271926 C147.192626,50.6330487 147.420361,49.2286837 147.885319,47.9476752 C148.350278,46.6571777 149.014505,45.5754372 149.887488,44.6834757 C150.760472,43.8010031 151.813745,43.1083096 153.028331,42.6243731 C154.252406,42.1404365 155.628304,41.8937237 157.175003,41.8937237 C158.721703,41.8937237 160.002711,42.1309475 161.18883,42.6053951 C162.374949,43.0798428 163.371289,43.7345805 164.17785,44.5696082 C164.984411,45.404636 165.610682,46.3914871 166.047174,47.5396503 C166.483665,48.6878135 166.7114,49.9403552 166.739867,51.2972753 L166.739867,52.9198861 L152.544395,52.9198861 L152.553884,52.9293751 Z M154.176495,46.8944015 C153.483801,47.5206724 153.009353,48.3367222 152.753152,49.3425512 L161.236275,49.3425512 C161.084452,48.3367222 160.666938,47.5206724 160.002711,46.8944015 C159.328996,46.2681307 158.3801,45.9455063 157.146537,45.9455063 C155.912973,45.9455063 154.869188,46.2586417 154.176495,46.8944015 Z" id="Shape"></path>
                        <path d="M181.827301,47.4068049 C179.739732,47.4068049 178.21201,47.9381863 177.234648,48.9914599 C176.257286,50.0447336 175.77335,51.562966 175.77335,53.546157 L175.77335,62.2285482 L170.374136,62.2285482 L170.374136,42.4061272 L175.583571,42.4061272 L175.583571,44.6834757 L176.352176,44.6834757 C176.503999,44.4557408 176.731734,44.1995391 177.025891,43.9338484 C177.320049,43.6681578 177.690118,43.421445 178.12661,43.2031991 C178.563102,42.9849532 179.094483,42.7951742 179.711265,42.643351 C180.328047,42.4915277 181.039718,42.4156161 181.83679,42.4156161 L183.573268,42.4156161 L183.573268,47.4257828 L181.83679,47.4257828 L181.827301,47.4068049 Z" id="Path"></path>
                    </g>
                    <path d="M17.459672,0 C7.81889657,0 -1.0113459e-14,7.81889657 -1.0113459e-14,17.459672 C-1.0113459e-14,27.1004473 7.81889657,34.9193439 17.459672,34.9193439 C27.1004473,34.9193439 34.9193439,27.1004473 34.9193439,17.459672 C34.9193439,7.81889657 27.1004473,0 17.459672,0 Z M26.2179748,24.4720076 L24.4625186,26.2274637 L10.4378474,26.2274637 L8.68239122,24.4720076 L8.68239122,10.4473363 L10.4378474,8.69188017 L24.4625186,8.69188017 L26.2179748,10.4473363 L26.2179748,24.4720076 Z" id="Shape"></path>
                </g>
            </g>
        </g>
    </g>
</svg>
