<?xml version="1.0" encoding="UTF-8"?>
<svg width="24px" height="24px" viewBox="0 0 24 24" version="1.1" xmlns="http://www.w3.org/2000/svg" xmlns:xlink="http://www.w3.org/1999/xlink">
    <title>social/medium</title>
    <g id="Symbols" stroke="none" stroke-width="1" fill="none" fill-rule="evenodd">
        <g id="social/medium" fill="#FFFFFF">
            <path d="M12,0 C5.374,0 0,5.372 0,12 C0,18.627 5.374,24 12,24 C18.627,24 24,18.627 24,12 C24,5.372 18.627,0 12,0 Z M18.974,17.557 L18.974,17.322 L17.882,16.25 C17.786,16.177 17.738,16.056 17.758,15.937 L17.758,8.063 C17.738,7.944 17.786,7.823 17.882,7.75 L19,6.678 L19,6.443 L15.131,6.443 L12.373,13.323 L9.235,6.443 L5.176,6.443 L5.176,6.678 L6.484,8.253 C6.612,8.368 6.678,8.538 6.66,8.71 L6.66,14.898 C6.698,15.121 6.628,15.349 6.471,15.512 L5,17.296 L5,17.531 L9.17,17.531 L9.17,17.296 L7.699,15.512 C7.541,15.349 7.466,15.123 7.497,14.898 L7.497,9.546 L11.157,17.531 L11.582,17.531 L14.725,9.546 L14.725,15.911 C14.725,16.081 14.725,16.113 14.614,16.224 L13.484,17.322 L13.484,17.557 L18.974,17.557 L18.974,17.557 Z" id="Shape"></path>
        </g>
    </g>
</svg>