<?xml version="1.0" encoding="UTF-8"?>
<svg width="24px" height="24px" viewBox="0 0 24 24" version="1.1" xmlns="http://www.w3.org/2000/svg" xmlns:xlink="http://www.w3.org/1999/xlink">
    <title>social/telegram</title>
    <g id="Symbols" stroke="none" stroke-width="1" fill="none" fill-rule="evenodd">
        <g id="social/telegram" fill="#FFFFFF">
            <path d="M12,0 C5.374,0 0,5.372 0,12 C0,18.627 5.374,24 12,24 C18.627,24 24,18.627 24,12 C24,5.372 18.627,0 12,0 Z M15.87,17.956 C16.085,17.874 16.244,17.689 16.292,17.465 C16.799,15.083 18.029,9.053 18.49,6.887 C18.525,6.723 18.467,6.553 18.339,6.444 C18.21,6.335 18.032,6.304 17.874,6.362 C15.428,7.268 7.895,10.094 4.816,11.233 C4.621,11.306 4.494,11.493 4.5,11.7 C4.507,11.906 4.646,12.085 4.846,12.145 C6.227,12.558 8.039,13.133 8.039,13.133 C8.039,13.133 8.886,15.691 9.327,16.991 C9.383,17.155 9.511,17.283 9.679,17.327 C9.848,17.371 10.027,17.325 10.153,17.206 C10.862,16.537 11.958,15.502 11.958,15.502 C11.958,15.502 14.042,17.029 15.224,17.871 C15.412,18.004 15.654,18.037 15.87,17.956 Z M9.781,16.04 L9.999,13.994 C9.999,13.994 13.782,10.581 15.94,8.636 C16.003,8.579 16.011,8.483 15.959,8.416 C15.907,8.349 15.811,8.333 15.74,8.379 C13.24,9.975 8.801,12.809 8.801,12.809 L9.781,16.04 Z" id="telegram-4"></path>
        </g>
    </g>
</svg>