<?xml version="1.0" encoding="UTF-8"?>
<svg width="24px" height="24px" viewBox="0 0 24 24" version="1.1" xmlns="http://www.w3.org/2000/svg" xmlns:xlink="http://www.w3.org/1999/xlink">
    <title>social/twitter</title>
    <g id="Symbols" stroke="none" stroke-width="1" fill="none" fill-rule="evenodd">
        <g id="social/twitter" fill="#FFFFFF" fill-rule="nonzero">
            <path d="M12,0 C5.373,0 0,5.373 0,12 C0,18.627 5.373,24 12,24 C18.627,24 24,18.627 24,12 C24,5.373 18.627,0 12,0 Z M18.066,9.645 C18.249,13.685 15.236,18.189 9.902,18.189 C8.28,18.189 6.771,17.713 5.5,16.898 C7.024,17.078 8.545,16.654 9.752,15.709 C8.496,15.686 7.435,14.855 7.068,13.714 C7.519,13.8 7.963,13.775 8.366,13.665 C6.985,13.387 6.031,12.143 6.062,10.812 C6.45,11.027 6.892,11.156 7.363,11.171 C6.084,10.316 5.722,8.627 6.474,7.336 C7.89,9.074 10.007,10.217 12.394,10.337 C11.975,8.541 13.338,6.81 15.193,6.81 C16.018,6.81 16.765,7.159 17.289,7.717 C17.943,7.589 18.559,7.349 19.113,7.02 C18.898,7.691 18.443,8.253 17.85,8.609 C18.431,8.539 18.985,8.385 19.499,8.156 C19.115,8.734 18.629,9.24 18.066,9.645 L18.066,9.645 Z" id="Shape"></path>
        </g>
    </g>
</svg>